<svg width="48" height="48" viewBox="0 0 48 48" fill="none" xmlns="http://www.w3.org/2000/svg">
<path d="M46.121 24.8521C45.9508 24.8521 45.7876 24.9197 45.6673 25.04C45.5469 25.1604 45.4793 25.3236 45.4793 25.4938V27.9272L29.8472 11.2375C29.7312 11.1147 29.5717 11.0422 29.4028 11.0355C29.2339 11.0288 29.0692 11.0884 28.9437 11.2016L23.6765 16.0375L16.7615 9.36374C16.6374 9.27175 16.4842 9.22761 16.3302 9.23943C16.1762 9.25125 16.0316 9.31825 15.923 9.4281C15.8144 9.53796 15.749 9.68331 15.739 9.83747C15.7289 9.99162 15.7748 10.1442 15.8682 10.2673L23.2196 17.3774C23.3389 17.4905 23.4969 17.5534 23.6611 17.5534C23.8254 17.5534 23.9834 17.4905 24.1026 17.3774L29.3441 12.5774L44.5399 28.805H42.4607C42.2905 28.805 42.1273 28.8726 42.007 28.993C41.8866 29.1133 41.819 29.2765 41.819 29.4467C41.819 29.6169 41.8866 29.7802 42.007 29.9005C42.1273 30.0208 42.2905 30.0885 42.4607 30.0885H46.1159C46.2861 30.0885 46.4493 30.0208 46.5697 29.9005C46.69 29.7802 46.7576 29.6169 46.7576 29.4467V25.4938C46.7576 25.3245 46.6907 25.162 46.5715 25.0418C46.4522 24.9216 46.2903 24.8534 46.121 24.8521Z" fill="#FF6D55"/>
<path d="M6.27333 27.6654H2.62841C2.45821 27.6654 2.29499 27.5978 2.17465 27.4774C2.0543 27.3571 1.98669 27.1939 1.98669 27.0237C1.98669 26.8535 2.0543 26.6903 2.17465 26.5699C2.29499 26.4496 2.45821 26.382 2.62841 26.382H6.27333C6.44352 26.382 6.60674 26.4496 6.72708 26.5699C6.84743 26.6903 6.91504 26.8535 6.91504 27.0237C6.91504 27.1939 6.84743 27.3571 6.72708 27.4774C6.60674 27.5978 6.44352 27.6654 6.27333 27.6654Z" fill="#3C6A98"/>
<path d="M6.27333 23.8152H2.62841C2.45821 23.8152 2.29499 23.7476 2.17465 23.6272C2.0543 23.5069 1.98669 23.3436 1.98669 23.1734C1.98669 23.0033 2.0543 22.84 2.17465 22.7197C2.29499 22.5993 2.45821 22.5317 2.62841 22.5317H6.27333C6.44352 22.5317 6.60674 22.5993 6.72708 22.7197C6.84743 22.84 6.91504 23.0033 6.91504 23.1734C6.91504 23.3436 6.84743 23.5069 6.72708 23.6272C6.60674 23.7476 6.44352 23.8152 6.27333 23.8152Z" fill="#3C6A98"/>
<path d="M6.27333 19.9649H2.62841C2.45821 19.9649 2.29499 19.8973 2.17465 19.777C2.0543 19.6566 1.98669 19.4934 1.98669 19.3232C1.98669 19.153 2.0543 18.9898 2.17465 18.8695C2.29499 18.7491 2.45821 18.6815 2.62841 18.6815H6.27333C6.44352 18.6815 6.60674 18.7491 6.72708 18.8695C6.84743 18.9898 6.91504 19.153 6.91504 19.3232C6.91504 19.4934 6.84743 19.6566 6.72708 19.777C6.60674 19.8973 6.44352 19.9649 6.27333 19.9649Z" fill="#3C6A98"/>
<path d="M6.27333 16.1197H2.62841C2.45821 16.1197 2.29499 16.0521 2.17465 15.9318C2.0543 15.8114 1.98669 15.6482 1.98669 15.478C1.98669 15.3078 2.0543 15.1446 2.17465 15.0243C2.29499 14.9039 2.45821 14.8363 2.62841 14.8363H6.27333C6.44352 14.8363 6.60674 14.9039 6.72708 15.0243C6.84743 15.1446 6.91504 15.3078 6.91504 15.478C6.91504 15.6482 6.84743 15.8114 6.72708 15.9318C6.60674 16.0521 6.44352 16.1197 6.27333 16.1197Z" fill="#3C6A98"/>
<path d="M6.27333 12.2695H2.62841C2.45821 12.2695 2.29499 12.2019 2.17465 12.0816C2.0543 11.9612 1.98669 11.798 1.98669 11.6278C1.98669 11.4576 2.0543 11.2944 2.17465 11.174C2.29499 11.0537 2.45821 10.9861 2.62841 10.9861H6.27333C6.44352 10.9861 6.60674 11.0537 6.72708 11.174C6.84743 11.2944 6.91504 11.4576 6.91504 11.6278C6.91504 11.798 6.84743 11.9612 6.72708 12.0816C6.60674 12.2019 6.44352 12.2695 6.27333 12.2695Z" fill="#3C6A98"/>
<path d="M40.9822 27.0237C40.9822 26.8535 40.9146 26.6903 40.7943 26.5699C40.6739 26.4496 40.5107 26.382 40.3405 26.382C40.1703 26.382 40.0071 26.4496 39.8868 26.5699C39.7664 26.6903 39.6988 26.8535 39.6988 27.0237V30.4068H36.9625V26.3974C36.9625 26.2272 36.8949 26.064 36.7746 25.9436C36.6542 25.8233 36.491 25.7557 36.3208 25.7557H32.5784C32.4082 25.7557 32.245 25.8233 32.1246 25.9436C32.0043 26.064 31.9367 26.2272 31.9367 26.3974V30.4068H29.1747V21.0481C29.1754 20.9636 29.1593 20.8799 29.1273 20.8017C29.0953 20.7235 29.048 20.6525 28.9883 20.5928C28.9286 20.5331 28.8576 20.4858 28.7794 20.4538C28.7012 20.4218 28.6175 20.4057 28.533 20.4064H24.8111C24.7266 20.4057 24.6429 20.4218 24.5647 20.4538C24.4866 20.4858 24.4155 20.5331 24.3558 20.5928C24.2961 20.6525 24.2488 20.7235 24.2168 20.8017C24.1848 20.8799 24.1687 20.9636 24.1694 21.0481V30.4068H21.4075V23.2196C21.4048 23.0512 21.336 22.8906 21.2159 22.7725C21.0959 22.6544 20.9342 22.5882 20.7658 22.5882H17.0438C16.8808 22.5947 16.7263 22.663 16.6118 22.7794C16.4974 22.8957 16.4316 23.0513 16.4278 23.2145V30.4017H13.6351V11.6278C13.6351 11.4576 13.5674 11.2943 13.4471 11.174C13.3268 11.0537 13.1635 10.986 12.9933 10.986H9.27655C9.10636 10.986 8.94314 11.0537 8.82279 11.174C8.70245 11.2943 8.63484 11.4576 8.63484 11.6278V30.4068H2.98778V8.08038C2.98913 7.96554 3.0357 7.85586 3.11739 7.77513C3.19908 7.69441 3.3093 7.64914 3.42414 7.64915H39.2624C39.3773 7.64914 39.4875 7.69441 39.5692 7.77513C39.6509 7.85586 39.6974 7.96554 39.6988 8.08038V19.8879C39.6988 20.0581 39.7664 20.2213 39.8868 20.3416C40.0071 20.462 40.1703 20.5296 40.3405 20.5296C40.5107 20.5296 40.6739 20.462 40.7943 20.3416C40.9146 20.2213 40.9822 20.0581 40.9822 19.8879V8.08038C40.9809 7.62515 40.7991 7.18903 40.4767 6.86762C40.1543 6.54621 39.7177 6.36572 39.2624 6.36572H3.39848C2.94325 6.36572 2.50659 6.54621 2.18422 6.86762C1.86184 7.18903 1.68005 7.62515 1.67869 8.08038L1.64789 34.3649C1.67301 34.8767 1.88491 35.3616 2.24346 35.7277C2.60202 36.0938 3.08235 36.3158 3.59356 36.3516H16.3302C16.3519 37.2901 16.3262 38.229 16.2532 39.1649C16.1886 39.4117 16.0595 39.637 15.879 39.8174C15.6986 39.9979 15.4734 40.127 15.2265 40.1916H13.2449C13.0747 40.1916 12.9115 40.2592 12.7911 40.3796C12.6708 40.4999 12.6032 40.6631 12.6032 40.8333C12.6032 41.0035 12.6708 41.1667 12.7911 41.2871C12.9115 41.4074 13.0747 41.475 13.2449 41.475H29.416C29.5862 41.475 29.7494 41.4074 29.8698 41.2871C29.9901 41.1667 30.0577 41.0035 30.0577 40.8333C30.0577 40.6631 29.9901 40.4999 29.8698 40.3796C29.7494 40.2592 29.5862 40.1916 29.416 40.1916H27.4344C27.1787 40.1462 26.9432 40.0234 26.7595 39.8398C26.5759 39.6561 26.4531 39.4206 26.4077 39.1649C26.3512 38.8004 26.3461 37.25 26.3358 36.3516H39.3548C40.3816 36.3516 41.013 35.3659 41.013 34.4213L40.9822 27.0237ZM39.3548 35.0682H3.59356C3.42684 35.031 3.27551 34.9437 3.15987 34.8179C3.04424 34.6922 2.96986 34.5341 2.94671 34.3649V31.7159H39.7296V34.4213C39.7296 34.7242 39.5756 35.0682 39.3548 35.0682Z" fill="#4C91D4"/>
<path d="M21.3304 34.021C21.6848 34.021 21.9721 33.7337 21.9721 33.3793C21.9721 33.0249 21.6848 32.7375 21.3304 32.7375C20.976 32.7375 20.6887 33.0249 20.6887 33.3793C20.6887 33.7337 20.976 34.021 21.3304 34.021Z" fill="#3C6A98"/>
<path d="M29.1747 21.0481C29.1754 20.9636 29.1593 20.8799 29.1273 20.8017C29.0953 20.7236 29.048 20.6525 28.9883 20.5928C28.9286 20.5331 28.8576 20.4859 28.7794 20.4538C28.7012 20.4218 28.6175 20.4057 28.533 20.4064H24.8111C24.7266 20.4057 24.6429 20.4218 24.5647 20.4538C24.4866 20.4859 24.4155 20.5331 24.3558 20.5928C24.2961 20.6525 24.2489 20.7236 24.2168 20.8017C24.1848 20.8799 24.1687 20.9636 24.1694 21.0481V30.4068H29.1747V21.0481Z" fill="#3C6A98"/>
<path d="M21.4023 23.2144C21.3983 23.0469 21.3289 22.8876 21.209 22.7706C21.0891 22.6536 20.9282 22.5881 20.7606 22.5881H17.0438C16.8808 22.5946 16.7263 22.663 16.6118 22.7793C16.4974 22.8957 16.4316 23.0513 16.4278 23.2144V30.4016H21.428L21.4023 23.2144Z" fill="#FF6D55"/>
<path d="M13.635 11.6278C13.635 11.4576 13.5674 11.2944 13.4471 11.174C13.3267 11.0537 13.1635 10.9861 12.9933 10.9861H9.27654C9.10635 10.9861 8.94312 11.0537 8.82278 11.174C8.70244 11.2944 8.63483 11.4576 8.63483 11.6278V30.4068H13.635V11.6278Z" fill="#FDD04C"/>
<path d="M36.9625 26.3973C36.9625 26.2271 36.8949 26.0639 36.7746 25.9436C36.6542 25.8232 36.491 25.7556 36.3208 25.7556H32.5784C32.4082 25.7556 32.2449 25.8232 32.1246 25.9436C32.0043 26.0639 31.9366 26.2271 31.9366 26.3973V30.4067H36.9625V26.3973Z" fill="#FF6D55"/>
</svg>
