<svg width="48" height="48" viewBox="0 0 48 48" fill="none" xmlns="http://www.w3.org/2000/svg">
<g clip-path="url(#clip0_444_169)">
<path d="M46.726 33.6232C46.2608 32.8042 45.6598 31.6618 45.1267 30.4763C44.5936 29.3662 44.1574 27.4048 44.1574 26.1115C43.8608 22.5281 42.7559 19.1653 40.2388 16.5197C37.7644 13.9187 34.2759 12.7686 30.6745 12.7477C26.1583 12.7214 21.5856 15.0626 19.4149 20.2039C17.3941 24.9902 18.418 29.644 20.7651 34.044C20.9533 34.3968 21.1453 34.7527 21.3392 35.111C23.4718 39.0511 24.1054 43.63 23.1182 47.9999H40.5179C39.9241 47.1916 39.6039 46.2148 39.6039 45.212V43.5898C42.1241 43.5898 44.167 41.5472 44.167 39.0278V35.4768H45.7955C46.6582 35.4769 47.1913 34.3992 46.726 33.6232Z" fill="#DFDEF9"/>
<path d="M42.6765 15.3794C42.6765 9.42181 37.894 4.59216 31.9944 4.59216C26.0948 4.59216 21.3124 9.42181 21.3124 15.3794C21.3124 18.5887 22.7005 21.4699 24.9031 23.4455C26.77 25.12 27.9008 27.4957 27.9008 30.042V30.8242H36.0881V30.042C36.0881 27.4958 37.2187 25.12 39.0857 23.4455C41.2884 21.4698 42.6765 18.5886 42.6765 15.3794Z" fill="#FDBF38"/>
<path d="M31.9675 2.34738C31.6843 2.34738 31.4547 2.11774 31.4547 1.83456V0.51282C31.4547 0.229641 31.6843 0 31.9675 0C32.2507 0 32.4803 0.229641 32.4803 0.51282V1.83456C32.4803 2.11774 32.2507 2.34738 31.9675 2.34738Z" fill="#FDBF38"/>
<path d="M21.0201 6.90771C20.8888 6.90771 20.7575 6.85766 20.6573 6.75735L19.7235 5.82279C19.5233 5.62248 19.5234 5.29776 19.7238 5.09755C19.9241 4.89725 20.2489 4.89735 20.449 5.09776L21.3829 6.03232C21.6872 6.33694 21.4505 6.90771 21.0201 6.90771Z" fill="#FDBF38"/>
<path d="M18.3354 14.3878H17.0147C16.7315 14.3878 16.5018 14.1582 16.5018 13.875C16.5018 13.5918 16.7315 13.3622 17.0147 13.3622H18.3354C18.6185 13.3622 18.8482 13.5918 18.8482 13.875C18.8482 14.1582 18.6185 14.3878 18.3354 14.3878Z" fill="#FDBF38"/>
<path d="M46.9743 14.3337H45.6536C45.3704 14.3337 45.1408 14.1041 45.1408 13.8209C45.1408 13.5377 45.3704 13.3081 45.6536 13.3081H46.9743C47.2575 13.3081 47.4872 13.5377 47.4872 13.8209C47.4872 14.1041 47.2575 14.3337 46.9743 14.3337Z" fill="#FDBF38"/>
<path d="M42.9307 6.86953C42.5002 6.86953 42.2637 6.29876 42.5679 5.99425L43.5018 5.05969C43.702 4.85928 44.0267 4.85917 44.227 5.05938C44.4273 5.25958 44.4275 5.5843 44.2273 5.78461L43.2934 6.71917C43.1933 6.81938 43.062 6.86953 42.9307 6.86953Z" fill="#FDBF38"/>
<path d="M36.3418 27.7133H27.647C26.6889 27.7133 25.9122 28.49 25.9122 29.4481V29.486C25.9122 30.4441 26.6889 31.2208 27.647 31.2208H36.3418C37.3 31.2208 38.0767 30.4441 38.0767 29.486V29.4481C38.0767 28.49 37.3 27.7133 36.3418 27.7133Z" fill="#6262F4"/>
<path d="M36.3503 31.2208H27.6387V33.2926C27.6387 34.0856 28.2815 34.7285 29.0746 34.7285H34.9144C35.7074 34.7285 36.3503 34.0856 36.3503 33.2926V31.2208Z" fill="#AC9EF9"/>
<path d="M32.0231 37.9355H31.9658C30.5497 37.9355 29.4017 36.7875 29.4017 35.3714V34.7284H34.5872V35.3714C34.5872 36.7875 33.4392 37.9355 32.0231 37.9355Z" fill="#6262F4"/>
<path d="M38.615 15.3742C38.615 14.8673 38.4539 14.3997 38.1824 14.0238C38.3231 13.6861 38.4013 13.3145 38.4013 12.9241C38.4013 11.3153 36.9984 9.96169 35.3752 10.1368C35.0066 9.26775 33.9875 8.64282 32.7868 8.64282C31.7434 8.64282 30.8365 9.11493 30.3749 9.80908C30.0035 9.65667 29.5836 9.57031 29.1384 9.57031C27.6272 9.57031 26.4021 10.5602 26.4021 11.7812C26.4021 12.0553 26.4644 12.3177 26.5772 12.56C25.3919 12.949 24.5441 13.983 24.5441 15.1979C24.5441 16.746 25.9204 18.001 27.6182 18.001C28.2498 18.001 28.8367 17.8271 29.325 17.5293C29.7725 18.3247 30.6555 18.8661 31.672 18.8661C32.7048 18.8661 33.5995 18.3069 34.0399 17.4906C33.813 18.3108 34.2596 19.168 35.051 19.4312L35.519 19.5869C36.0666 19.7691 36.3828 20.2498 36.6271 20.7409L38.3825 19.2221L37.1298 17.5094C37.992 17.2162 38.615 16.3713 38.615 15.3742Z" fill="white"/>
<path d="M35.4608 16.8343C35.1828 16.8343 34.9544 16.612 34.9483 16.3327L34.948 16.3191C34.935 15.7586 34.4846 15.3092 33.9434 15.3232C33.6624 15.3274 33.4259 15.1046 33.4199 14.8213C33.4138 14.5382 33.6385 14.3038 33.9217 14.2978C35.0273 14.276 35.9476 15.1706 35.9735 16.2959L35.9738 16.3101C35.9801 16.5932 35.7555 16.8278 35.4724 16.8341C35.4684 16.8342 35.4646 16.8343 35.4608 16.8343Z" fill="#EFEFEF"/>
<path d="M30.2494 14.5367C30.0038 14.5367 29.7869 14.3598 29.7444 14.1095C29.6292 13.4307 29.1206 12.9483 28.5322 12.9615C28.2475 12.9705 28.0141 12.744 28.0075 12.4609C28.0008 12.1777 28.225 11.9429 28.5081 11.9362C29.6122 11.9113 30.5544 12.7523 30.7556 13.9381C30.8029 14.2173 30.615 14.4821 30.3357 14.5294C30.3068 14.5343 30.2778 14.5367 30.2494 14.5367Z" fill="#EFEFEF"/>
<path d="M34.522 12.301C34.3113 12.301 34.1138 12.1701 34.039 11.9603C33.8076 11.3117 33.2213 10.9242 32.6457 11.0402C32.3681 11.0959 32.0977 10.9159 32.0421 10.6382C31.9864 10.3605 32.1664 10.0902 32.444 10.0346C33.5241 9.81834 34.6011 10.4832 35.0051 11.6159C35.1002 11.8826 34.9611 12.176 34.6943 12.2712C34.6374 12.2914 34.5792 12.301 34.522 12.301Z" fill="#EFEFEF"/>
<path d="M12.0096 36.4778C11.7265 36.4778 11.4968 36.2483 11.4968 35.965V33.573C11.4968 33.2842 11.2616 33.0491 10.9726 33.0491H6.64646C6.35744 33.0491 6.12226 33.2842 6.12226 33.573V35.965C6.12226 36.2483 5.89262 36.4778 5.60944 36.4778C5.32626 36.4778 5.09662 36.2483 5.09662 35.965V33.573C5.09662 32.7185 5.7919 32.0234 6.64646 32.0234H10.9726C11.8273 32.0234 12.5225 32.7185 12.5225 33.573V35.965C12.5225 36.2483 12.2928 36.4778 12.0096 36.4778Z" fill="#DFDEF9"/>
<path d="M16.5136 36.7466H1.10541V46.9744C1.10541 47.5408 1.56459 48 2.13105 48H15.488C16.0544 48 16.5136 47.5408 16.5136 46.9744V36.7466Z" fill="#E54A91"/>
<path d="M16.0691 35.5502H1.54995C0.977125 35.5502 0.512817 36.0144 0.512817 36.587V38.8971C0.512817 39.1805 0.704407 39.4281 0.978664 39.4993L8.80943 41.5318L16.6402 39.4993C16.9146 39.4281 17.106 39.1805 17.106 38.8971V36.587C17.1063 36.0144 16.6419 35.5502 16.0691 35.5502Z" fill="#F761A6"/>
<path d="M7.7724 40.3885H9.84655V42.4622H7.7724V40.3885Z" fill="#DFDEF9"/>
<path d="M13.4496 23.3862L12.4564 22.819C12.5261 22.4795 12.5629 22.1281 12.5629 21.7682C12.5629 21.4083 12.526 21.0569 12.4564 20.7173L13.4496 20.1501C13.7499 19.9786 13.8528 19.595 13.6784 19.2964L12.6245 17.4906C12.4524 17.1959 12.0749 17.0946 11.7784 17.264L10.7734 17.8379C10.2443 17.3739 9.62091 17.0134 8.93506 16.787V15.6508C8.93506 15.3073 8.6565 15.0287 8.31281 15.0287H6.19496C5.85127 15.0287 5.5727 15.3073 5.5727 15.6508V16.787C4.88686 17.0134 4.26347 17.3739 3.73434 17.8379L2.72932 17.264C2.43291 17.0946 2.05527 17.1958 1.88327 17.4906L0.829319 19.2963C0.65496 19.5949 0.757729 19.9784 1.05814 20.15L2.05137 20.7172C1.98163 21.0568 1.94491 21.4082 1.94491 21.7681C1.94491 22.128 1.98173 22.4794 2.05137 22.8189L1.05814 23.3861C0.757832 23.5576 0.65496 23.9412 0.829319 24.2399L1.88327 26.0456C2.05537 26.3404 2.43291 26.4415 2.72932 26.2723L3.73434 25.6983C4.26347 26.1623 4.88686 26.5228 5.5727 26.7492V27.8854C5.5727 28.229 5.85127 28.5075 6.19496 28.5075H8.31281C8.6565 28.5075 8.93506 28.2289 8.93506 27.8854V26.7492C9.62091 26.5228 10.2443 26.1623 10.7734 25.6983L11.7784 26.2723C12.0749 26.4416 12.4525 26.3405 12.6245 26.0456L13.6784 24.2399C13.8528 23.9412 13.7499 23.5577 13.4496 23.3862Z" fill="#25B79B"/>
<path d="M7.25383 24.2187C8.60764 24.2187 9.70512 23.1215 9.70512 21.7681C9.70512 20.4146 8.60764 19.3174 7.25383 19.3174C5.90003 19.3174 4.80255 20.4146 4.80255 21.7681C4.80255 23.1215 5.90003 24.2187 7.25383 24.2187Z" fill="white"/>
<path d="M10.2614 11.7108C13.3544 11.7108 15.8617 9.20402 15.8617 6.11179C15.8617 3.01956 13.3544 0.512817 10.2614 0.512817C7.16848 0.512817 4.66113 3.01956 4.66113 6.11179C4.66113 9.20402 7.16848 11.7108 10.2614 11.7108Z" fill="#FDBF38"/>
<path d="M10.657 5.57888V3.92627C10.9949 3.99386 11.3165 4.14093 11.5928 4.35509C11.8754 4.5517 12.2949 4.28145 12.2985 3.95386C12.299 3.83888 12.2553 3.73037 12.1725 3.64534C11.7477 3.27632 11.2094 3.05109 10.6521 3.00801V2.46832C10.6521 2.27242 10.4949 2.11304 10.3089 2.11304C10.103 2.11304 9.9323 2.25058 9.92912 2.46832V2.98873C8.83281 3.08647 8.07148 3.79745 8.07148 4.73119C8.07148 5.84801 8.94553 6.19324 9.92912 6.46534V8.3594C9.47968 8.28729 9.06009 8.09345 8.71127 7.79601C8.4203 7.56145 7.97855 7.82801 7.98307 8.18504C7.98245 8.30001 8.02614 8.40852 8.10809 8.49273C8.61178 8.95263 9.25845 9.22288 9.93404 9.25683V9.7554C9.9565 9.95458 10.0869 10.1228 10.3053 10.1113C10.4992 10.1113 10.6569 9.9516 10.6569 9.7554V9.24535C12.0435 9.13273 12.5392 8.2234 12.5392 7.40288C12.5392 6.21232 11.5749 5.83345 10.657 5.57888ZM11.5361 7.51242C11.5361 7.86463 11.3037 8.26894 10.657 8.36986V6.68453C11.1907 6.84555 11.5404 7.05437 11.5361 7.51242ZM9.93404 3.88606V5.38904C9.44789 5.24083 9.0843 5.0834 9.0843 4.67129C9.0843 4.24904 9.41589 3.94504 9.93404 3.88606Z" fill="white"/>
<path d="M2.13435 12.1932L1.53845 12.3196L2.22758 12.5151C2.59055 12.6181 2.86768 12.9119 2.94912 13.2803L3.07691 13.8581L3.20471 13.2803C3.28614 12.9119 3.56327 12.6181 3.92625 12.5151L4.61538 12.3196L4.01948 12.1933C3.63363 12.1116 3.32891 11.8158 3.23558 11.4326L3.07691 10.7811L2.91825 11.4326C2.82491 11.8158 2.5202 12.1115 2.13435 12.1932Z" fill="#E54A91"/>
<path d="M14.1891 29.925L13.5932 30.0513L14.2823 30.2468C14.6453 30.3497 14.9224 30.6436 15.0039 31.012L15.1317 31.5897L15.2595 31.012C15.3409 30.6436 15.618 30.3497 15.981 30.2468L16.6701 30.0513L16.0742 29.925C15.6884 29.8433 15.3837 29.5475 15.2903 29.1643L15.1317 28.5128L14.973 29.1643C14.8797 29.5475 14.5748 29.8433 14.1891 29.925Z" fill="#FDBF38"/>
</g>
<defs>
<clipPath id="clip0_444_169">
<rect width="48" height="48" fill="white"/>
</clipPath>
</defs>
</svg>
