<svg width="48" height="48" viewBox="0 0 48 48" fill="none" xmlns="http://www.w3.org/2000/svg">
<path d="M45.2594 14.1185C45.2591 13.3136 45.0869 12.6024 44.7388 11.9919C44.3968 11.3917 43.8847 10.8885 43.1978 10.4907C37.5275 7.22123 31.8517 3.96173 26.1833 0.688887C24.6551 -0.193358 23.1734 -0.161194 21.6566 0.733716C19.3997 2.06475 8.09995 8.5386 4.73278 10.4889C3.34609 11.2917 2.67132 12.5202 2.67099 14.117C2.66882 20.6922 2.67099 27.2672 2.66882 33.8426C2.66916 34.6298 2.83397 35.3273 3.16677 35.9285C3.50891 36.547 4.02819 37.0639 4.73095 37.4707C8.09828 39.421 19.3995 45.8944 21.6559 47.2257C23.1734 48.1211 24.6551 48.1531 26.1838 47.2706C31.8524 43.9976 37.5285 40.7382 43.1996 37.4687C43.9024 37.0621 44.4216 36.5448 44.7638 35.9269C45.0961 35.3256 45.2612 34.6282 45.2616 33.8407C45.2616 33.8407 45.2616 20.6939 45.2594 14.1185Z" fill="#5C8DBC"/>
<path d="M24.0303 23.9158L3.16675 35.9286C3.50888 36.547 4.02816 37.064 4.73092 37.4707C8.09826 39.4211 19.3995 45.8944 21.6559 47.2258C23.1734 48.1212 24.6551 48.1532 26.1838 47.2706C31.8524 43.9976 37.5285 40.7383 43.1996 37.4688C43.9023 37.0621 44.4216 36.5448 44.7638 35.9269L24.0303 23.9158Z" fill="#1A4674"/>
<path d="M17.8508 27.4741C19.0649 29.5935 21.3471 31.0231 23.9652 31.0231C26.5995 31.0231 28.8947 29.5754 30.1026 27.4333L24.0304 23.9158L17.8508 27.4741Z" fill="#1A4674"/>
<path d="M45.2593 14.1186C45.259 13.3136 45.0868 12.6024 44.7387 11.9919L24.0303 23.9158L44.7637 35.9269C45.096 35.3256 45.2611 34.6282 45.2615 33.8408C45.2615 33.8408 45.2615 20.6939 45.2593 14.1186Z" fill="#1B598E"/>
<path d="M44.1193 24.7744H42.4991V26.3949H40.8786V24.7744H39.2586V23.1544H40.8786V21.5342H42.4991V23.1544H44.1193V24.7744ZM38.2074 24.7744H36.5874V26.3949H34.9672V24.7744H33.347V23.1544H34.9672V21.5342H36.5874V23.1544H38.2074V24.7744Z" fill="white"/>
<path d="M30.1026 27.4333C28.8947 29.5754 26.5995 31.0231 23.9652 31.0231C21.3471 31.0231 19.0649 29.5936 17.8508 27.4741C17.2409 26.4106 16.9207 25.2058 16.9219 23.9798C16.9219 20.09 20.0754 16.9367 23.9652 16.9367C26.5665 16.9367 28.8367 18.3484 30.0568 20.4462L36.213 16.9012C33.7661 12.6773 29.1977 9.83557 23.9652 9.83557C16.1533 9.83557 9.8208 16.1683 9.8208 23.9798C9.8208 26.5426 10.5026 28.9458 11.6941 31.0188C14.1349 35.265 18.7162 38.1242 23.9652 38.1242C29.2239 38.1242 33.8124 35.2535 36.2497 30.9948L30.1026 27.4333Z" fill="white"/>
</svg>
