<svg width="48" height="48" viewBox="0 0 48 48" fill="none" xmlns="http://www.w3.org/2000/svg">
<path d="M35.5674 25.2C35.3942 25.0569 35.1842 24.9652 34.9615 24.9355C34.7387 24.9058 34.5121 24.9392 34.3074 25.032C33.0385 25.6127 31.6588 25.9116 30.2634 25.908C27.682 25.9049 25.2065 24.8814 23.3767 23.0606C21.5469 21.2398 20.5112 18.7694 20.4954 16.188C20.5009 15.379 20.6015 14.5735 20.7954 13.788C20.8365 13.5787 20.8211 13.3621 20.7507 13.1607C20.6803 12.9593 20.5575 12.7803 20.3949 12.6422C20.2323 12.504 20.0358 12.4118 19.8257 12.3748C19.6155 12.3379 19.3993 12.3576 19.1994 12.432C17.3182 13.2779 15.6829 14.5881 14.4471 16.2396C13.2113 17.8911 12.4156 19.8296 12.1348 21.873C11.854 23.9164 12.0972 25.9977 12.8416 27.9214C13.5861 29.845 14.8073 31.5478 16.3905 32.8698C17.9738 34.1918 19.8672 35.0897 21.8927 35.479C23.9183 35.8683 26.0096 35.7364 27.9701 35.0955C29.9307 34.4546 31.6961 33.3259 33.1007 31.8153C34.5052 30.3048 35.5027 28.462 35.9994 26.46C36.0599 26.2308 36.0511 25.9888 35.9743 25.7646C35.8974 25.5403 35.7558 25.3439 35.5674 25.2ZM24.1674 33.228C22.1535 33.2138 20.1932 32.5775 18.555 31.4061C16.9167 30.2348 15.6806 28.5856 15.0158 26.6846C14.351 24.7835 14.2901 22.7235 14.8414 20.7864C15.3927 18.8494 16.5292 17.1302 18.0954 15.864V16.188C18.0986 19.4142 19.3816 22.5073 21.6628 24.7886C23.9441 27.0699 27.0372 28.3529 30.2634 28.356C31.1104 28.3591 31.9554 28.2706 32.7834 28.092C31.9553 29.6587 30.7151 30.9694 29.1968 31.883C27.6784 32.7966 25.9394 33.2782 24.1674 33.276V33.228Z" fill="#9F5BFF"/>
<path d="M24.1674 33.228C22.1535 33.2138 20.1932 32.5775 18.555 31.4061C16.9167 30.2348 15.6806 28.5856 15.0158 26.6846C14.351 24.7835 14.2901 22.7235 14.8414 20.7864C15.3927 18.8494 16.5292 17.1302 18.0954 15.864V16.188C18.0986 19.4142 19.3816 22.5073 21.6628 24.7886C23.9441 27.0699 27.0372 28.3529 30.2634 28.356C31.1104 28.3591 31.9554 28.2706 32.7834 28.092C31.9553 29.6587 30.7151 30.9694 29.1968 31.883C27.6784 32.7966 25.9394 33.2782 24.1674 33.276V33.228Z" fill="#9F5BFF"/>
</svg>
