<svg width="48" height="48" viewBox="0 0 48 48" fill="none" xmlns="http://www.w3.org/2000/svg">
<path d="M26.4966 35.609H16.3716V39.9374H26.4966V35.609Z" fill="#445EA0"/>
<path d="M18.2318 35.609H16.3716V39.9374H18.2318V35.609Z" fill="#2E4C89"/>
<path d="M31.2313 42.1875C31.2313 42.4453 31.0204 42.6562 30.7626 42.6562H12.106C11.8482 42.6562 11.6373 42.4453 11.6373 42.1875V40.3125C11.6373 40.0547 11.8482 39.8438 12.106 39.8438H30.7626C31.0204 39.8438 31.2313 40.0547 31.2313 40.3125V42.1875Z" fill="#293D7C"/>
<path d="M13.4975 42.1875V40.3125C13.4975 40.0547 13.7084 39.8438 13.9662 39.8438H12.106C11.8482 39.8438 11.6373 40.0547 11.6373 40.3125V42.1875C11.6373 42.4453 11.8482 42.6562 12.106 42.6562H13.9662C13.7084 42.6562 13.4975 42.4453 13.4975 42.1875Z" fill="#1A2B63"/>
<path d="M0 34.7657C0 35.2813 0.421875 35.7032 0.9375 35.7032H29.0789V29.4265H0V34.7657Z" fill="#293D7C"/>
<path d="M1.86019 34.7657V29.4265H0V34.7657C0 35.2813 0.421875 35.7032 0.9375 35.7032H2.79769C2.28206 35.7032 1.86019 35.2813 1.86019 34.7657Z" fill="#1A2B63"/>
<path d="M29.0789 26.905C29.0789 26.6982 29.2471 26.53 29.4539 26.53H42.8686V6.23106C42.8686 5.66425 42.4049 5.20056 41.8382 5.20056H1.0305C0.463687 5.20056 0 5.66425 0 6.23106V29.5202H29.0789V26.905Z" fill="#445EA0"/>
<path d="M29.0789 26.905C29.0789 26.6982 29.2471 26.53 29.4539 26.53H40.8077V7.73035C40.8077 7.47253 40.5967 7.2616 40.3389 7.2616H2.52972C2.27191 7.2616 2.06097 7.47253 2.06097 7.73035V26.9904C2.06097 27.2483 2.27191 27.4592 2.52972 27.4592H29.0788L29.0789 26.905Z" fill="#EEF6FF"/>
<path d="M21.434 33.9489C22.1543 33.9489 22.7382 33.365 22.7382 32.6447C22.7382 31.9245 22.1543 31.3406 21.434 31.3406C20.7138 31.3406 20.1299 31.9245 20.1299 32.6447C20.1299 33.365 20.7138 33.9489 21.434 33.9489Z" fill="#445EA0"/>
<path d="M39.0339 19.3477C39.0339 19.6055 38.8229 19.8165 38.5651 19.8165H23.7098C23.452 19.8165 23.241 19.6055 23.241 19.3477V12.5304C23.241 12.2726 23.452 12.0616 23.7098 12.0616H38.5651C38.8229 12.0616 39.0339 12.2726 39.0339 12.5304V19.3477Z" fill="#FFAF10"/>
<path d="M25.1013 19.3477V12.5304C25.1013 12.2726 25.3122 12.0616 25.57 12.0616H23.7098C23.452 12.0616 23.2411 12.2726 23.2411 12.5304V19.3477C23.2411 19.6055 23.452 19.8165 23.7098 19.8165H25.57C25.3122 19.8165 25.1013 19.6055 25.1013 19.3477Z" fill="#FF9518"/>
<path d="M28.0562 22.5114H24.0145C23.6262 22.5114 23.3113 22.1966 23.3113 21.8082C23.3113 21.4198 23.6262 21.1051 24.0145 21.1051H28.0562C28.4445 21.1051 28.7593 21.4198 28.7593 21.8082C28.7593 22.1966 28.4445 22.5114 28.0562 22.5114Z" fill="#C3DDF4"/>
<path d="M28.0562 24.6484H24.0145C23.6262 24.6484 23.3113 24.3337 23.3113 23.9453C23.3113 23.5569 23.6262 23.2422 24.0145 23.2422H28.0562C28.4445 23.2422 28.7593 23.5569 28.7593 23.9453C28.7593 24.3337 28.4445 24.6484 28.0562 24.6484Z" fill="#C3DDF4"/>
<path d="M32.9325 22.5114H29.9269C29.5386 22.5114 29.2238 22.1966 29.2238 21.8082C29.2238 21.4198 29.5386 21.1051 29.9269 21.1051H32.9325C33.3208 21.1051 33.6356 21.4198 33.6356 21.8082C33.6356 22.1966 33.3208 22.5114 32.9325 22.5114Z" fill="#C3DDF4"/>
<path d="M32.9325 24.6484H29.9269C29.5386 24.6484 29.2238 24.3337 29.2238 23.9453C29.2238 23.5569 29.5386 23.2422 29.9269 23.2422H32.9325C33.3208 23.2422 33.6356 23.5569 33.6356 23.9453C33.6356 24.3337 33.3208 24.6484 32.9325 24.6484Z" fill="#C3DDF4"/>
<path d="M38.6036 22.5114H34.7753C34.387 22.5114 34.0721 22.1966 34.0721 21.8082C34.0721 21.4198 34.387 21.1051 34.7753 21.1051H38.6036C38.992 21.1051 39.3068 21.4198 39.3068 21.8082C39.3068 22.1966 38.992 22.5114 38.6036 22.5114Z" fill="#C3DDF4"/>
<path d="M38.6036 24.6484H34.7753C34.387 24.6484 34.0721 24.3337 34.0721 23.9453C34.0721 23.5569 34.387 23.2422 34.7753 23.2422H38.6036C38.992 23.2422 39.3068 23.5569 39.3068 23.9453C39.3068 24.3337 38.992 24.6484 38.6036 24.6484Z" fill="#C3DDF4"/>
<path d="M33.6905 10.4141C33.6905 10.6719 33.4795 10.8828 33.2217 10.8828H32.1906C31.9327 10.8828 31.7218 10.6719 31.7218 10.4141V9.38293C31.7218 9.12512 31.9327 8.91418 32.1906 8.91418H33.2217C33.4795 8.91418 33.6905 9.12512 33.6905 9.38293V10.4141Z" fill="#EF8318"/>
<path d="M36.3153 10.4141C36.3153 10.6719 36.1043 10.8828 35.8465 10.8828H34.8154C34.5576 10.8828 34.3466 10.6719 34.3466 10.4141V9.38293C34.3466 9.12512 34.5576 8.91418 34.8154 8.91418H35.8465C36.1043 8.91418 36.3153 9.12512 36.3153 9.38293V10.4141Z" fill="#EF8318"/>
<path d="M38.9401 10.4141C38.9401 10.6719 38.7292 10.8828 38.4713 10.8828H37.4402C37.1824 10.8828 36.9714 10.6719 36.9714 10.4141V9.38293C36.9714 9.12512 37.1824 8.91418 37.4402 8.91418H38.4713C38.7292 8.91418 38.9401 9.12512 38.9401 9.38293V10.4141Z" fill="#EF8318"/>
<path d="M17.8967 24.0942H17.053C16.6647 24.0942 16.3499 23.7795 16.3499 23.3911C16.3499 23.0027 16.6647 22.688 17.053 22.688H17.8967C18.285 22.688 18.5999 23.0027 18.5999 23.3911C18.5999 23.7795 18.285 24.0942 17.8967 24.0942Z" fill="#69CDFF"/>
<path d="M14.7092 24.0942H13.8655C13.4772 24.0942 13.1624 23.7795 13.1624 23.3911C13.1624 23.0027 13.4772 22.688 13.8655 22.688H14.7092C15.0975 22.688 15.4124 23.0027 15.4124 23.3911C15.4124 23.7795 15.0975 24.0942 14.7092 24.0942Z" fill="#69CDFF"/>
<path d="M11.5216 24.0942H10.6779C10.2895 24.0942 9.97473 23.7795 9.97473 23.3911C9.97473 23.0027 10.2895 22.688 10.6779 22.688H11.5216C11.9099 22.688 12.2247 23.0027 12.2247 23.3911C12.2248 23.7795 11.91 24.0942 11.5216 24.0942Z" fill="#69CDFF"/>
<path d="M8.33411 24.0942H7.49036C7.10204 24.0942 6.78723 23.7795 6.78723 23.3911C6.78723 23.0027 7.10204 22.688 7.49036 22.688H8.33411C8.72242 22.688 9.03723 23.0027 9.03723 23.3911C9.03723 23.7795 8.72251 24.0942 8.33411 24.0942Z" fill="#69CDFF"/>
<path d="M20.6389 21.1975C20.2506 21.1975 19.9358 20.8828 19.9358 20.4944V19.6506C19.9358 19.2623 20.2506 18.9475 20.6389 18.9475C21.0272 18.9475 21.342 19.2623 21.342 19.6506V20.4944C21.342 20.8828 21.0272 21.1975 20.6389 21.1975Z" fill="#69CDFF"/>
<path d="M20.6389 18.01C20.2506 18.01 19.9358 17.6953 19.9358 17.3069V16.4631C19.9358 16.0748 20.2506 15.76 20.6389 15.76C21.0272 15.76 21.342 16.0748 21.342 16.4631V17.3069C21.342 17.6953 21.0272 18.01 20.6389 18.01Z" fill="#69CDFF"/>
<path d="M20.6389 14.8225C20.2506 14.8225 19.9358 14.5078 19.9358 14.1194V13.2756C19.9358 12.8873 20.2506 12.5725 20.6389 12.5725C21.0272 12.5725 21.342 12.8873 21.342 13.2756V14.1194C21.342 14.5078 21.0272 14.8225 20.6389 14.8225Z" fill="#69CDFF"/>
<path d="M4.70129 21.1975C4.31298 21.1975 3.99817 20.8828 3.99817 20.4944V19.6506C3.99817 19.2623 4.31298 18.9475 4.70129 18.9475C5.08961 18.9475 5.40442 19.2623 5.40442 19.6506V20.4944C5.40442 20.8828 5.0897 21.1975 4.70129 21.1975Z" fill="#69CDFF"/>
<path d="M4.70129 18.01C4.31298 18.01 3.99817 17.6953 3.99817 17.3069V16.4631C3.99817 16.0748 4.31298 15.76 4.70129 15.76C5.08961 15.76 5.40442 16.0748 5.40442 16.4631V17.3069C5.40442 17.6953 5.0897 18.01 4.70129 18.01Z" fill="#69CDFF"/>
<path d="M4.70129 14.8225C4.31298 14.8225 3.99817 14.5078 3.99817 14.1194V13.2756C3.99817 12.8873 4.31298 12.5725 4.70129 12.5725C5.08961 12.5725 5.40442 12.8873 5.40442 13.2756V14.1194C5.40442 14.5078 5.0897 14.8225 4.70129 14.8225Z" fill="#69CDFF"/>
<path d="M17.8967 11.3442H17.053C16.6647 11.3442 16.3499 11.0295 16.3499 10.6411C16.3499 10.2527 16.6647 9.93799 17.053 9.93799H17.8967C18.285 9.93799 18.5999 10.2527 18.5999 10.6411C18.5999 11.0295 18.285 11.3442 17.8967 11.3442Z" fill="#69CDFF"/>
<path d="M14.7092 11.3442H13.8655C13.4772 11.3442 13.1624 11.0295 13.1624 10.6411C13.1624 10.2527 13.4772 9.93799 13.8655 9.93799H14.7092C15.0975 9.93799 15.4124 10.2527 15.4124 10.6411C15.4124 11.0295 15.0975 11.3442 14.7092 11.3442Z" fill="#69CDFF"/>
<path d="M11.5216 11.3442H10.6779C10.2895 11.3442 9.97473 11.0295 9.97473 10.6411C9.97473 10.2527 10.2895 9.93799 10.6779 9.93799H11.5216C11.9099 9.93799 12.2247 10.2527 12.2247 10.6411C12.2247 11.0295 11.91 11.3442 11.5216 11.3442Z" fill="#69CDFF"/>
<path d="M8.33411 11.3442H7.49036C7.10204 11.3442 6.78723 11.0295 6.78723 10.6411C6.78723 10.2527 7.10204 9.93799 7.49036 9.93799H8.33411C8.72242 9.93799 9.03723 10.2527 9.03723 10.6411C9.03723 11.0295 8.72251 11.3442 8.33411 11.3442Z" fill="#69CDFF"/>
<path d="M18.7639 21.0474C18.7639 21.3052 18.5529 21.5161 18.2951 21.5161H7.0451C6.78729 21.5161 6.57635 21.3052 6.57635 21.0474V12.9849C6.57635 12.7271 6.78729 12.5161 7.0451 12.5161H18.2951C18.5529 12.5161 18.7639 12.7271 18.7639 12.9849V21.0474Z" fill="#5DC1D8"/>
<path d="M8.43657 21.0474V12.9849C8.43657 12.7271 8.64751 12.5161 8.90532 12.5161H7.04504C6.78723 12.5161 6.57629 12.7271 6.57629 12.9849V21.0474C6.57629 21.3052 6.78723 21.5161 7.04504 21.5161H8.90532C8.64751 21.5161 8.43657 21.3052 8.43657 21.0474Z" fill="#28A5A5"/>
<path d="M21.9511 11.3446C21.9511 11.6024 21.7402 11.8134 21.4824 11.8134H19.5136C19.2558 11.8134 19.0449 11.6024 19.0449 11.3446V9.37585C19.0449 9.11804 19.2558 8.9071 19.5136 8.9071H21.4824C21.7402 8.9071 21.9511 9.11804 21.9511 9.37585V11.3446Z" fill="#52BBEF"/>
<path d="M6.38861 11.5321C6.38861 11.7899 6.17767 12.0009 5.91986 12.0009H3.95111C3.6933 12.0009 3.48236 11.7899 3.48236 11.5321V9.56335C3.48236 9.30554 3.6933 9.0946 3.95111 9.0946H5.91986C6.17767 9.0946 6.38861 9.30554 6.38861 9.56335V11.5321Z" fill="#52BBEF"/>
<path d="M21.9511 24.4578C21.9511 24.7156 21.7402 24.9265 21.4824 24.9265H19.5136C19.2558 24.9265 19.0449 24.7156 19.0449 24.4578V22.489C19.0449 22.2312 19.2558 22.0203 19.5136 22.0203H21.4824C21.7402 22.0203 21.9511 22.2312 21.9511 22.489V24.4578Z" fill="#52BBEF"/>
<path d="M6.38861 24.4578C6.38861 24.7156 6.17767 24.9265 5.91986 24.9265H3.95111C3.6933 24.9265 3.48236 24.7156 3.48236 24.4578V22.489C3.48236 22.2312 3.6933 22.0203 3.95111 22.0203H5.91986C6.17767 22.0203 6.38861 22.2312 6.38861 22.489V24.4578Z" fill="#52BBEF"/>
<path d="M20.0782 11.3446V9.37585C20.0782 9.11804 20.2891 8.9071 20.5469 8.9071H19.5136C19.2558 8.9071 19.0449 9.11804 19.0449 9.37585V11.3446C19.0449 11.6024 19.2558 11.8134 19.5136 11.8134H20.5469C20.2891 11.8134 20.0782 11.6024 20.0782 11.3446Z" fill="#1E99D6"/>
<path d="M4.51567 11.5321V9.56335C4.51567 9.30554 4.72661 9.0946 4.98442 9.0946H3.95111C3.6933 9.0946 3.48236 9.30554 3.48236 9.56335V11.5321C3.48236 11.7899 3.6933 12.0009 3.95111 12.0009H4.98442C4.72661 12.0009 4.51567 11.7899 4.51567 11.5321Z" fill="#1E99D6"/>
<path d="M20.0782 24.4578V22.489C20.0782 22.2312 20.2891 22.0203 20.5469 22.0203H19.5136C19.2558 22.0203 19.0449 22.2312 19.0449 22.489V24.4578C19.0449 24.7156 19.2558 24.9265 19.5136 24.9265H20.5469C20.2891 24.9265 20.0782 24.7156 20.0782 24.4578Z" fill="#1E99D6"/>
<path d="M4.51567 24.4578V22.489C4.51567 22.2312 4.72661 22.0203 4.98442 22.0203H3.95111C3.6933 22.0203 3.48236 22.2312 3.48236 22.489V24.4578C3.48236 24.7156 3.6933 24.9265 3.95111 24.9265H4.98442C4.72661 24.9265 4.51567 24.7156 4.51567 24.4578Z" fill="#1E99D6"/>
<path d="M40.8242 34.385C40.8096 34.3454 40.8108 34.3229 40.8128 34.3156C40.8129 34.3156 40.8186 34.3151 40.824 34.3151C40.8347 34.3151 40.8533 34.3172 40.8815 34.3276L44.8288 35.7775V26.9052C44.8288 26.6473 44.6179 26.4364 44.36 26.4364H29.4538C29.196 26.4364 28.985 26.6473 28.985 26.9052V37.6677C28.985 37.9255 29.196 38.1364 29.4538 38.1364H42.2019L40.8242 34.385Z" fill="#5DC1D8"/>
<path d="M30.8454 37.6675V26.905C30.8454 26.6472 31.0563 26.4363 31.3141 26.4363H29.4539C29.1961 26.4363 28.9852 26.6472 28.9852 26.905V37.6675C28.9852 37.9253 29.1961 38.1363 29.4539 38.1363H31.3141C31.0563 38.1363 30.8454 37.9253 30.8454 37.6675Z" fill="#28A5A5"/>
<path d="M40.9139 34.2396C40.7595 34.1828 40.6794 34.2628 40.7361 34.4173L43.2079 41.1469C43.2646 41.3014 43.4062 41.3325 43.5226 41.2162L44.8348 39.9039C44.9511 39.7876 45.1415 39.7876 45.2581 39.9039L46.7701 41.4161C46.8864 41.5325 47.0768 41.5325 47.1933 41.4161L47.9127 40.6967C48.029 40.5803 48.029 40.3898 47.9127 40.2735L46.4006 38.7614C46.2843 38.6451 46.2843 38.4547 46.4006 38.3382L47.7127 37.026C47.8292 36.9098 47.7979 36.7681 47.6434 36.7114L40.9139 34.2396Z" fill="#293D7C"/>
</svg>
