<svg width="48" height="48" viewBox="0 0 48 48" fill="none" xmlns="http://www.w3.org/2000/svg">
<path d="M0 0H48V48H0V0Z" fill="#FFDF00"/>
<path d="M32.2438 37.5002C33.2106 39.0789 34.4686 40.2392 36.6934 40.2392C38.5623 40.2392 39.7562 39.3051 39.7562 38.0144C39.7562 36.4677 38.5296 35.92 36.4724 35.0201L35.3448 34.5363C32.0899 33.1496 29.9276 31.4125 29.9276 27.7401C29.9276 24.3572 32.5052 21.782 36.5333 21.782C39.4011 21.782 41.4629 22.78 42.9486 25.3934L39.4362 27.6487C38.6629 26.262 37.8286 25.7157 36.5333 25.7157C35.2122 25.7157 34.3748 26.5539 34.3748 27.6487C34.3748 29.0019 35.213 29.5496 37.1481 30.3878L38.2758 30.8708C42.1082 32.5142 44.2719 34.1896 44.2719 37.9565C44.2719 42.0175 41.0818 44.2422 36.7976 44.2422C32.6087 44.2422 29.9024 42.246 28.5782 39.6296L32.2438 37.5002ZM16.3101 37.891C17.0186 39.1482 17.6632 40.2111 19.2129 40.2111C20.6948 40.2111 21.6297 39.6312 21.6297 37.3768V22.0396H26.1402V37.4377C26.1402 42.1081 23.402 44.2339 19.4049 44.2339C15.7935 44.2339 13.7021 42.3649 12.6384 40.1139L16.3101 37.891Z" fill="black"/>
</svg>
