<svg width="24" height="24" viewBox="0 0 24 24" fill="none" xmlns="http://www.w3.org/2000/svg">
<path d="M8.184 15L7.758 15.426C7.64625 15.5384 7.58352 15.6905 7.58352 15.849C7.58352 16.0075 7.64625 16.1596 7.758 16.272C7.87042 16.3838 8.02249 16.4465 8.181 16.4465C8.33951 16.4465 8.49158 16.3838 8.604 16.272L9.03 15.846C9.1283 15.7312 9.17966 15.5836 9.17383 15.4326C9.16799 15.2816 9.10539 15.1383 8.99854 15.0315C8.89168 14.9246 8.74844 14.862 8.59743 14.8562C8.44643 14.8503 8.29878 14.9017 8.184 15ZM7.8 12C7.8 11.8409 7.73679 11.6883 7.62426 11.5757C7.51174 11.4632 7.35913 11.4 7.2 11.4H6.6C6.44087 11.4 6.28826 11.4632 6.17574 11.5757C6.06321 11.6883 6 11.8409 6 12C6 12.1591 6.06321 12.3117 6.17574 12.4243C6.28826 12.5368 6.44087 12.6 6.6 12.6H7.2C7.35913 12.6 7.51174 12.5368 7.62426 12.4243C7.73679 12.3117 7.8 12.1591 7.8 12ZM12 7.8C12.1591 7.8 12.3117 7.73679 12.4243 7.62426C12.5368 7.51174 12.6 7.35913 12.6 7.2V6.6C12.6 6.44087 12.5368 6.28826 12.4243 6.17574C12.3117 6.06321 12.1591 6 12 6C11.8409 6 11.6883 6.06321 11.5757 6.17574C11.4632 6.28826 11.4 6.44087 11.4 6.6V7.2C11.4 7.35913 11.4632 7.51174 11.5757 7.62426C11.6883 7.73679 11.8409 7.8 12 7.8ZM8.184 9.03C8.29576 9.14085 8.4466 9.20334 8.604 9.204C8.68296 9.20446 8.76124 9.18932 8.83434 9.15946C8.90745 9.1296 8.97394 9.08561 9.03 9.03C9.14175 8.91758 9.20448 8.76551 9.20448 8.607C9.20448 8.44849 9.14175 8.29642 9.03 8.184L8.604 7.758C8.48922 7.6597 8.34157 7.60834 8.19057 7.61417C8.03956 7.62001 7.89632 7.68261 7.78946 7.78946C7.68261 7.89632 7.62001 8.03956 7.61417 8.19057C7.60834 8.34157 7.6597 8.48922 7.758 8.604L8.184 9.03ZM15.384 9.204C15.5414 9.20334 15.6922 9.14085 15.804 9.03L16.23 8.604C16.2928 8.55021 16.3438 8.48402 16.3798 8.40958C16.4159 8.33514 16.4361 8.25406 16.4393 8.17143C16.4425 8.0888 16.4285 8.0064 16.3984 7.92941C16.3682 7.85241 16.3225 7.78248 16.264 7.72401C16.2055 7.66554 16.1356 7.61978 16.0586 7.58962C15.9816 7.55945 15.8992 7.54553 15.8166 7.54872C15.7339 7.55191 15.6529 7.57215 15.5784 7.60816C15.504 7.64418 15.4378 7.69519 15.384 7.758L15 8.184C14.8882 8.29642 14.8255 8.44849 14.8255 8.607C14.8255 8.76551 14.8882 8.91758 15 9.03C15.1058 9.13522 15.247 9.19725 15.396 9.204H15.384ZM17.4 11.4H16.8C16.6409 11.4 16.4883 11.4632 16.3757 11.5757C16.2632 11.6883 16.2 11.8409 16.2 12C16.2 12.1591 16.2632 12.3117 16.3757 12.4243C16.4883 12.5368 16.6409 12.6 16.8 12.6H17.4C17.5591 12.6 17.7117 12.5368 17.8243 12.4243C17.9368 12.3117 18 12.1591 18 12C18 11.8409 17.9368 11.6883 17.8243 11.5757C17.7117 11.4632 17.5591 11.4 17.4 11.4ZM12 16.2C11.8409 16.2 11.6883 16.2632 11.5757 16.3757C11.4632 16.4883 11.4 16.6409 11.4 16.8V17.4C11.4 17.5591 11.4632 17.7117 11.5757 17.8243C11.6883 17.9368 11.8409 18 12 18C12.1591 18 12.3117 17.9368 12.4243 17.8243C12.5368 17.7117 12.6 17.5591 12.6 17.4V16.8C12.6 16.6409 12.5368 16.4883 12.4243 16.3757C12.3117 16.2632 12.1591 16.2 12 16.2ZM15.816 15C15.702 14.9366 15.5705 14.9121 15.4413 14.9301C15.3121 14.9482 15.1923 15.0078 15.1001 15.1001C15.0078 15.1923 14.9482 15.3121 14.9301 15.4413C14.9121 15.5705 14.9366 15.702 15 15.816L15.426 16.242C15.5384 16.3538 15.6905 16.4165 15.849 16.4165C16.0075 16.4165 16.1596 16.3538 16.272 16.242C16.3838 16.1296 16.4465 15.9775 16.4465 15.819C16.4465 15.6605 16.3838 15.5084 16.272 15.396L15.816 15ZM12 8.7C11.3473 8.7 10.7093 8.89354 10.1666 9.25615C9.62394 9.61876 9.20097 10.1341 8.9512 10.7371C8.70143 11.3401 8.63608 12.0037 8.76341 12.6438C8.89074 13.2839 9.20503 13.8719 9.66655 14.3335C10.1281 14.795 10.7161 15.1093 11.3562 15.2366C11.9963 15.3639 12.6599 15.2986 13.2629 15.0488C13.8659 14.799 14.3812 14.3761 14.7438 13.8334C15.1065 13.2907 15.3 12.6527 15.3 12C15.2984 11.1253 14.9502 10.2868 14.3317 9.6683C13.7132 9.04977 12.8747 8.70159 12 8.7ZM12 14.1C11.5847 14.1 11.1786 13.9768 10.8333 13.7461C10.488 13.5153 10.2188 13.1874 10.0599 12.8036C9.90091 12.4199 9.85932 11.9977 9.94035 11.5903C10.0214 11.183 10.2214 10.8088 10.5151 10.5151C10.8088 10.2214 11.183 10.0214 11.5903 9.94035C11.9977 9.85932 12.4199 9.90091 12.8036 10.0599C13.1874 10.2188 13.5153 10.488 13.7461 10.8333C13.9768 11.1786 14.1 11.5847 14.1 12C14.1 12.557 13.8788 13.0911 13.4849 13.4849C13.0911 13.8788 12.557 14.1 12 14.1Z" fill="#9F5BFF"/>
<path d="M12 14.1C11.5847 14.1 11.1786 13.9768 10.8333 13.7461C10.488 13.5153 10.2188 13.1874 10.0599 12.8036C9.90091 12.4199 9.85932 11.9977 9.94035 11.5903C10.0214 11.183 10.2214 10.8088 10.5151 10.5151C10.8088 10.2214 11.183 10.0214 11.5903 9.94035C11.9977 9.85932 12.4199 9.90091 12.8036 10.0599C13.1874 10.2188 13.5153 10.488 13.7461 10.8333C13.9768 11.1786 14.1 11.5847 14.1 12C14.1 12.557 13.8788 13.0911 13.4849 13.4849C13.0911 13.8788 12.557 14.1 12 14.1Z" fill="#9F5BFF"/>
</svg>
