<svg width="48" height="48" viewBox="0 0 48 48" fill="none" xmlns="http://www.w3.org/2000/svg">
<path fill-rule="evenodd" clip-rule="evenodd" d="M2.48276 3.3103H24V44.6896H2.48276C1.11157 44.6896 0 43.578 0 42.2069V5.79306C0 4.42187 1.11157 3.3103 2.48276 3.3103Z" fill="#464F5D"/>
<path d="M25.6552 46.3448V1.65517C25.6552 0.741046 24.9141 0 24 0C23.0859 0 22.3448 0.741046 22.3448 1.65517V46.3448C22.3448 47.259 23.0859 48 24 48C24.9141 48 25.6552 47.259 25.6552 46.3448Z" fill="#BDC3C7"/>
<path fill-rule="evenodd" clip-rule="evenodd" d="M3.31037 12.4138C2.95415 12.4138 2.6379 12.1859 2.52525 11.8479C2.4126 11.51 2.52884 11.1379 2.81381 10.9242L5.24113 9.10348L2.81381 7.28279C2.44816 7.00856 2.37406 6.48982 2.6483 6.12417C2.92254 5.75852 3.44127 5.68442 3.80692 5.95866L7.11726 8.44142C7.32565 8.59771 7.4483 8.843 7.4483 9.10348C7.4483 9.36397 7.32565 9.60926 7.11726 9.76555L3.80692 12.2483C3.66367 12.3558 3.48943 12.4138 3.31037 12.4138Z" fill="#65DDB9"/>
<path fill-rule="evenodd" clip-rule="evenodd" d="M13.2414 12.4138H9.93104C9.47398 12.4138 9.10345 12.0433 9.10345 11.5863C9.10345 11.1292 9.47398 10.7587 9.93104 10.7587H13.2414C13.6984 10.7587 14.069 11.1292 14.069 11.5863C14.069 12.0433 13.6984 12.4138 13.2414 12.4138Z" fill="#65DDB9"/>
<path fill-rule="evenodd" clip-rule="evenodd" d="M5.79325 17.3793H3.3105C2.85343 17.3793 2.48291 17.0088 2.48291 16.5517C2.48291 16.0946 2.85343 15.7241 3.3105 15.7241H5.79325C6.25032 15.7241 6.62084 16.0946 6.62084 16.5517C6.62084 17.0088 6.25032 17.3793 5.79325 17.3793Z" fill="#65DDB9"/>
<path fill-rule="evenodd" clip-rule="evenodd" d="M5.79325 20.6897H3.3105C2.85343 20.6897 2.48291 20.3192 2.48291 19.8621C2.48291 19.4051 2.85343 19.0345 3.3105 19.0345H5.79325C6.25032 19.0345 6.62084 19.4051 6.62084 19.8621C6.62084 20.3192 6.25032 20.6897 5.79325 20.6897Z" fill="#65DDB9"/>
<path fill-rule="evenodd" clip-rule="evenodd" d="M5.79325 24H3.3105C2.85343 24 2.48291 23.6295 2.48291 23.1724C2.48291 22.7154 2.85343 22.3448 3.3105 22.3448H5.79325C6.25032 22.3448 6.62084 22.7154 6.62084 23.1724C6.62084 23.6295 6.25032 24 5.79325 24Z" fill="#65DDB9"/>
<path fill-rule="evenodd" clip-rule="evenodd" d="M5.79325 27.3103H3.3105C2.85343 27.3103 2.48291 26.9398 2.48291 26.4827C2.48291 26.0257 2.85343 25.6552 3.3105 25.6552H5.79325C6.25032 25.6552 6.62084 26.0257 6.62084 26.4827C6.62084 26.9398 6.25032 27.3103 5.79325 27.3103Z" fill="#65DDB9"/>
<path fill-rule="evenodd" clip-rule="evenodd" d="M5.79325 30.6207H3.3105C2.85343 30.6207 2.48291 30.2502 2.48291 29.7932C2.48291 29.3361 2.85343 28.9656 3.3105 28.9656H5.79325C6.25032 28.9656 6.62084 29.3361 6.62084 29.7932C6.62084 30.2502 6.25032 30.6207 5.79325 30.6207Z" fill="#65DDB9"/>
<path fill-rule="evenodd" clip-rule="evenodd" d="M5.79325 33.9311H3.3105C2.85343 33.9311 2.48291 33.5605 2.48291 33.1035C2.48291 32.6464 2.85343 32.2759 3.3105 32.2759H5.79325C6.25032 32.2759 6.62084 32.6464 6.62084 33.1035C6.62084 33.5605 6.25032 33.9311 5.79325 33.9311Z" fill="#65DDB9"/>
<path fill-rule="evenodd" clip-rule="evenodd" d="M5.79325 37.2414H3.3105C2.85343 37.2414 2.48291 36.8708 2.48291 36.4138C2.48291 35.9567 2.85343 35.5862 3.3105 35.5862H5.79325C6.25032 35.5862 6.62084 35.9567 6.62084 36.4138C6.62084 36.8708 6.25032 37.2414 5.79325 37.2414Z" fill="#65DDB9"/>
<path fill-rule="evenodd" clip-rule="evenodd" d="M5.79325 40.5518H3.3105C2.85343 40.5518 2.48291 40.1813 2.48291 39.7242C2.48291 39.2671 2.85343 38.8966 3.3105 38.8966H5.79325C6.25032 38.8966 6.62084 39.2671 6.62084 39.7242C6.62084 40.1813 6.25032 40.5518 5.79325 40.5518Z" fill="#65DDB9"/>
<path fill-rule="evenodd" clip-rule="evenodd" d="M19.0345 17.3793H9.10347C8.6464 17.3793 8.27588 17.0088 8.27588 16.5517C8.27588 16.0946 8.6464 15.7241 9.10347 15.7241H19.0345C19.4916 15.7241 19.8621 16.0946 19.8621 16.5517C19.8621 17.0088 19.4916 17.3793 19.0345 17.3793Z" fill="#65DDB9"/>
<path fill-rule="evenodd" clip-rule="evenodd" d="M17.3793 20.6897H10.7586C10.3016 20.6897 9.93103 20.3192 9.93103 19.8621C9.93103 19.4051 10.3016 19.0345 10.7586 19.0345H17.3793C17.8364 19.0345 18.2069 19.4051 18.2069 19.8621C18.2069 20.3192 17.8364 20.6897 17.3793 20.6897Z" fill="#65DDB9"/>
<path fill-rule="evenodd" clip-rule="evenodd" d="M19.0345 24H9.10347C8.6464 24 8.27588 23.6295 8.27588 23.1724C8.27588 22.7154 8.6464 22.3448 9.10347 22.3448H19.0345C19.4916 22.3448 19.8621 22.7154 19.8621 23.1724C19.8621 23.6295 19.4916 24 19.0345 24Z" fill="#65DDB9"/>
<path fill-rule="evenodd" clip-rule="evenodd" d="M17.3793 27.3103H10.7586C10.3016 27.3103 9.93103 26.9398 9.93103 26.4827C9.93103 26.0257 10.3016 25.6552 10.7586 25.6552H17.3793C17.8364 25.6552 18.2069 26.0257 18.2069 26.4827C18.2069 26.9398 17.8364 27.3103 17.3793 27.3103Z" fill="#65DDB9"/>
<path fill-rule="evenodd" clip-rule="evenodd" d="M19.0345 30.6207H9.10347C8.6464 30.6207 8.27588 30.2502 8.27588 29.7932C8.27588 29.3361 8.6464 28.9656 9.10347 28.9656H19.0345C19.4916 28.9656 19.8621 29.3361 19.8621 29.7932C19.8621 30.2502 19.4916 30.6207 19.0345 30.6207Z" fill="#65DDB9"/>
<path fill-rule="evenodd" clip-rule="evenodd" d="M17.3793 33.9311H10.7586C10.3016 33.9311 9.93103 33.5605 9.93103 33.1035C9.93103 32.6464 10.3016 32.2759 10.7586 32.2759H17.3793C17.8364 32.2759 18.2069 32.6464 18.2069 33.1035C18.2069 33.5605 17.8364 33.9311 17.3793 33.9311Z" fill="#65DDB9"/>
<path fill-rule="evenodd" clip-rule="evenodd" d="M19.0345 37.2414H9.10347C8.6464 37.2414 8.27588 36.8708 8.27588 36.4138C8.27588 35.9567 8.6464 35.5862 9.10347 35.5862H19.0345C19.4916 35.5862 19.8621 35.9567 19.8621 36.4138C19.8621 36.8708 19.4916 37.2414 19.0345 37.2414Z" fill="#65DDB9"/>
<path fill-rule="evenodd" clip-rule="evenodd" d="M17.3793 40.5518H10.7586C10.3016 40.5518 9.93103 40.1813 9.93103 39.7242C9.93103 39.2671 10.3016 38.8966 10.7586 38.8966H17.3793C17.8364 38.8966 18.2069 39.2671 18.2069 39.7242C18.2069 40.1813 17.8364 40.5518 17.3793 40.5518Z" fill="#65DDB9"/>
<path fill-rule="evenodd" clip-rule="evenodd" d="M40.5517 7.44833H33.5172C33.0602 7.44833 32.6896 7.0778 32.6896 6.62074C32.6896 6.16368 33.0602 5.79315 33.5172 5.79315H40.5517C41.0088 5.79315 41.3793 5.42263 41.3793 4.96557V1.65522C41.3793 1.19816 41.7498 0.827637 42.2069 0.827637C42.6639 0.827637 43.0345 1.19816 43.0345 1.65522V4.96557C43.0345 6.33676 41.9229 7.44833 40.5517 7.44833Z" fill="#3B97D3"/>
<path fill-rule="evenodd" clip-rule="evenodd" d="M42.2069 47.5862C41.7498 47.5862 41.3793 47.2157 41.3793 46.7587V43.0345C41.3793 42.5775 41.0088 42.2069 40.5517 42.2069H35.5862C35.1291 42.2069 34.7586 41.8364 34.7586 41.3793C34.7586 40.9223 35.1291 40.5518 35.5862 40.5518H40.5517C41.9229 40.5518 43.0345 41.6633 43.0345 43.0345V46.7587C43.0345 46.9781 42.9473 47.1886 42.7921 47.3438C42.6369 47.499 42.4264 47.5862 42.2069 47.5862Z" fill="#3B97D3"/>
<path fill-rule="evenodd" clip-rule="evenodd" d="M46.3448 43.0344C45.8878 43.0344 45.5172 42.6639 45.5172 42.2069V39.7241C45.5172 39.267 45.1467 38.8965 44.6897 38.8965H38.8966C38.4395 38.8965 38.069 38.526 38.069 38.0689C38.069 37.6119 38.4395 37.2413 38.8966 37.2413H44.6897C46.0608 37.2413 47.1724 38.3529 47.1724 39.7241V42.2069C47.1724 42.6639 46.8019 43.0344 46.3448 43.0344Z" fill="#3B97D3"/>
<path fill-rule="evenodd" clip-rule="evenodd" d="M44.6897 10.7587H36.1655C35.7085 10.7587 35.338 10.3881 35.338 9.93107C35.338 9.474 35.7085 9.10348 36.1655 9.10348H44.6897C45.1467 9.10348 45.5173 8.73296 45.5173 8.27589V5.33796C45.5173 4.8809 45.8878 4.51038 46.3448 4.51038C46.8019 4.51038 47.1724 4.8809 47.1724 5.33796V8.27589C47.1724 9.64708 46.0609 10.7587 44.6897 10.7587Z" fill="#3B97D3"/>
<path fill-rule="evenodd" clip-rule="evenodd" d="M44.1352 28.709C44.5004 29.3493 44.6915 30.074 44.6896 30.8111C44.6885 33.0705 42.9456 34.9469 40.6924 35.1145C41.0483 35.7876 41.233 36.538 41.2303 37.2994C41.2316 38.5618 40.7307 39.773 39.838 40.6657C38.9453 41.5584 37.7342 42.0593 36.4717 42.058C35.4352 44.5272 32.8023 45.924 30.1766 45.3977C27.5509 44.8713 25.6598 42.5676 25.6552 39.8897V6.57937C25.6552 6.57937 25.6552 0.27316 33.8731 5.33799C34.5434 5.75178 35.2717 6.24006 36.0579 6.81937L36.0662 6.82764C36.1007 6.83787 36.134 6.85174 36.1655 6.86902C37.6546 7.44608 38.6349 8.88028 38.6317 10.4773C38.6317 10.6266 38.6234 10.7758 38.6069 10.9242C38.5351 11.5291 38.3256 12.1095 37.9945 12.6207C37.9862 12.629 37.9862 12.6373 37.9779 12.6456C40.7624 12.7571 42.9618 15.0478 42.96 17.8345C42.9605 18.3045 42.8965 18.7723 42.7696 19.2249C43.9387 20.2492 44.632 21.7113 44.6853 23.2647C44.7386 24.818 44.1471 26.3243 43.051 27.4263L43.0676 27.4428C43.509 27.7846 43.8728 28.2162 44.1352 28.709Z" fill="#FF5364"/>
<path fill-rule="evenodd" clip-rule="evenodd" d="M38.6069 10.9242C38.5351 11.5291 38.3256 12.1095 37.9945 12.6207C35.371 12.958 33.4052 15.1895 33.4014 17.8345C33.4014 18.2916 33.0309 18.6621 32.5738 18.6621C32.1167 18.6621 31.7462 18.2916 31.7462 17.8345C31.7502 14.039 34.8115 10.9555 38.6069 10.9242Z" fill="#DF4D60"/>
<path fill-rule="evenodd" clip-rule="evenodd" d="M44.1352 28.709C42.6872 29.8413 40.9003 30.4535 39.0621 30.4469C38.605 30.4469 38.2345 30.0764 38.2345 29.6193C38.2345 29.1622 38.605 28.7917 39.0621 28.7917C40.5097 28.7972 41.9182 28.3228 43.0676 27.4427C43.509 27.7846 43.8729 28.2161 44.1352 28.709Z" fill="#DF4D60"/>
<path fill-rule="evenodd" clip-rule="evenodd" d="M36.1655 6.86893C35.9049 6.80915 35.6384 6.77862 35.371 6.77789C33.3289 6.78017 31.674 8.43507 31.6717 10.4772C31.6717 10.9343 31.3012 11.3048 30.8441 11.3048C30.3871 11.3048 30.0165 10.9343 30.0165 10.4772C30.018 8.09771 31.5888 6.00435 33.8731 5.33789C34.5434 5.75168 35.2717 6.23996 36.0579 6.81927L36.0662 6.82755C36.1007 6.83777 36.134 6.85165 36.1655 6.86893Z" fill="#DF4D60"/>
<path fill-rule="evenodd" clip-rule="evenodd" d="M37.6808 27.2822C37.7111 27.2856 37.7415 27.2872 37.7719 27.2872C38.2109 27.2862 38.5728 26.9424 38.5963 26.504C38.6198 26.0655 38.2969 25.685 37.8604 25.637C36.7192 25.5053 35.7464 24.7486 35.3379 23.6748C38.2544 22.9924 40.3183 20.3936 40.3225 17.3984C40.3225 16.9413 39.952 16.5708 39.4949 16.5708C39.0378 16.5708 38.6673 16.9413 38.6673 17.3984C38.6645 19.337 37.4958 21.0836 35.7049 21.8258C33.9139 22.5679 31.8524 22.1599 30.4792 20.7915C30.1545 20.4779 29.6383 20.4823 29.3191 20.8016C28.9998 21.1208 28.9953 21.637 29.309 21.9617C30.4619 23.1177 32.0128 23.7897 33.6447 23.8403C34.164 25.7023 35.7602 27.0635 37.6808 27.2822Z" fill="#DF4D60"/>
<path fill-rule="evenodd" clip-rule="evenodd" d="M37.7677 35.1724C37.4628 35.1746 37.1584 35.2 36.8574 35.2485C36.8574 35.2104 36.864 35.1732 36.864 35.1351C36.8608 31.8126 34.1683 29.1197 30.8458 29.1161C30.3887 29.1161 30.0182 29.4866 30.0182 29.9437C30.0182 30.4007 30.3887 30.7713 30.8458 30.7713C33.2546 30.774 35.2065 32.7263 35.2088 35.1351C35.207 35.3502 35.1891 35.5649 35.155 35.7773C33.0755 36.7797 31.7523 38.8829 31.7487 41.1914C31.7487 41.6485 32.1192 42.019 32.5763 42.019C33.0333 42.019 33.4038 41.6485 33.4038 41.1914C33.4061 38.7822 35.3586 36.8298 37.7677 36.8275C38.2248 36.8275 38.5953 36.457 38.5953 36C38.5953 35.5429 38.2248 35.1724 37.7677 35.1724Z" fill="#DF4D60"/>
<path fill-rule="evenodd" clip-rule="evenodd" d="M28.2538 16.9655C28.2538 17.4226 27.8832 17.7931 27.4262 17.7931C26.4484 17.794 25.6561 18.5864 25.6552 19.5642V16.6428C26.1862 16.3111 26.8001 16.1361 27.4262 16.138C27.8832 16.138 28.2538 16.5085 28.2538 16.9655Z" fill="#DF4D60"/>
<path fill-rule="evenodd" clip-rule="evenodd" d="M31.2827 34.2703C31.2827 34.7274 30.9122 35.0979 30.4552 35.0979C27.8074 35.0979 25.6597 37.2419 25.6552 39.8897V35.5945C26.8732 34.223 28.6208 33.4395 30.4552 33.4428C30.9122 33.4428 31.2827 33.8133 31.2827 34.2703Z" fill="#DF4D60"/>
<path d="M42.2069 3.31034C43.121 3.31034 43.862 2.5693 43.862 1.65517C43.862 0.741046 43.121 0 42.2069 0C41.2927 0 40.5517 0.741046 40.5517 1.65517C40.5517 2.5693 41.2927 3.31034 42.2069 3.31034Z" fill="#F0C419"/>
<path d="M46.3448 7.44828C47.2589 7.44828 48 6.70724 48 5.79311C48 4.87899 47.2589 4.13794 46.3448 4.13794C45.4307 4.13794 44.6896 4.87899 44.6896 5.79311C44.6896 6.70724 45.4307 7.44828 46.3448 7.44828Z" fill="#F0C419"/>
<path d="M42.2069 48C43.121 48 43.862 47.259 43.862 46.3449C43.862 45.4307 43.121 44.6897 42.2069 44.6897C41.2927 44.6897 40.5517 45.4307 40.5517 46.3449C40.5517 47.259 41.2927 48 42.2069 48Z" fill="#F0C419"/>
<path d="M46.3448 43.8621C47.2589 43.8621 48 43.1211 48 42.2069C48 41.2928 47.2589 40.5518 46.3448 40.5518C45.4307 40.5518 44.6896 41.2928 44.6896 42.2069C44.6896 43.1211 45.4307 43.8621 46.3448 43.8621Z" fill="#F0C419"/>
</svg>
