<svg width="48" height="48" viewBox="0 0 48 48" fill="none" xmlns="http://www.w3.org/2000/svg">
<g clip-path="url(#clip0_444_251)">
<path d="M32.1232 0H10.3545C9.72357 0.000124304 9.11853 0.250843 8.67245 0.697014C8.22637 1.14318 7.97577 1.74827 7.97577 2.37919V45.6207C7.97577 46.2517 8.22644 46.8569 8.67264 47.3031C9.11885 47.7493 9.72403 48 10.3551 48H32.1232C32.7543 48 33.3594 47.7493 33.8056 47.3031C34.2518 46.8569 34.5025 46.2517 34.5025 45.6207V2.37928C34.5025 1.74826 34.2518 1.1431 33.8056 0.696903C33.3594 0.250706 32.7543 2.48623e-05 32.1232 0V0Z" fill="#285680"/>
<path d="M16.6191 4.39692C16.4197 4.39692 16.2286 4.31775 16.0877 4.17681C15.9467 4.03588 15.8676 3.84473 15.8676 3.64542C15.8676 3.44611 15.9467 3.25496 16.0877 3.11403C16.2286 2.9731 16.4197 2.89392 16.6191 2.89392H25.8592C26.0586 2.89392 26.2497 2.9731 26.3906 3.11403C26.5316 3.25496 26.6107 3.44611 26.6107 3.64542C26.6107 3.84473 26.5316 4.03588 26.3906 4.17681C26.2497 4.31775 26.0586 4.39692 25.8592 4.39692H16.6191Z" fill="#FCEE86"/>
<path d="M23.1124 44.3545C23.1124 44.5538 23.0332 44.745 22.8923 44.8859C22.7513 45.0269 22.5602 45.106 22.3609 45.106H20.1173C19.918 45.106 19.7269 45.0269 19.586 44.8859C19.445 44.745 19.3658 44.5538 19.3658 44.3545C19.3658 44.1552 19.445 43.9641 19.586 43.8231C19.7269 43.6822 19.918 43.603 20.1173 43.603H22.3609C22.5602 43.603 22.7513 43.6822 22.8923 43.8231C23.0332 43.9641 23.1124 44.1552 23.1124 44.3545Z" fill="#FCEE86"/>
<path d="M30.6275 11.0262V16.5892C30.6271 16.923 30.4944 17.2429 30.2584 17.4789C30.0224 17.7149 29.7024 17.8476 29.3687 17.848H23.5575C23.2238 17.8476 22.9038 17.7149 22.6678 17.4789C22.4318 17.2429 22.299 16.923 22.2986 16.5892V11.0262C22.299 10.6924 22.4318 10.3725 22.6678 10.1365C22.9038 9.90046 23.2238 9.76771 23.5575 9.76733H29.3687C29.7024 9.76773 30.0224 9.90049 30.2584 10.1365C30.4944 10.3725 30.6271 10.6925 30.6275 11.0262Z" fill="#35ACEF"/>
<path d="M13.1095 39.1012C12.7758 39.1008 12.4559 38.968 12.2199 38.7321C11.9839 38.4961 11.8512 38.1761 11.8508 37.8424V32.2794C11.8512 31.9456 11.9839 31.6257 12.2199 31.3897C12.4558 31.1537 12.7758 31.0209 13.1095 31.0205H18.9208C19.2545 31.0209 19.5745 31.1537 19.8105 31.3897C20.0465 31.6257 20.1792 31.9456 20.1796 32.2794V37.8424C20.1792 38.1761 20.0465 38.4961 19.8105 38.7321C19.5745 38.9681 19.2545 39.1008 18.9208 39.1012H13.1095Z" fill="#7ED0FC"/>
<path d="M23.5574 39.1012C23.2237 39.1008 22.9037 38.9681 22.6677 38.7321C22.4318 38.4961 22.299 38.1761 22.2986 37.8424V32.2794C22.299 31.9456 22.4318 31.6257 22.6677 31.3897C22.9037 31.1537 23.2237 31.0209 23.5574 31.0205H29.3686C29.7024 31.0209 30.0224 31.1536 30.2584 31.3896C30.4944 31.6256 30.6271 31.9456 30.6275 32.2794V37.8424C30.6271 38.1762 30.4943 38.4961 30.2583 38.7321C30.0223 38.9681 29.7024 39.1008 29.3686 39.1012H23.5574Z" fill="#F9AAB6"/>
<path d="M11.8508 21.6527C11.8512 21.319 11.9839 20.999 12.2199 20.7631C12.4559 20.5271 12.7758 20.3943 13.1095 20.3939H18.9208C19.2545 20.3943 19.5745 20.527 19.8105 20.763C20.0465 20.999 20.1792 21.319 20.1796 21.6527V27.2156C20.1792 27.5494 20.0465 27.8693 19.8105 28.1053C19.5745 28.3413 19.2545 28.474 18.9208 28.4744H13.1095C12.7758 28.474 12.4559 28.3413 12.2199 28.1053C11.9839 27.8693 11.8512 27.5494 11.8508 27.2156V21.6527Z" fill="#FCEE86"/>
<path d="M22.2986 21.6527C22.299 21.319 22.4318 20.999 22.6678 20.763C22.9038 20.5271 23.2237 20.3943 23.5574 20.3939H29.3686C29.7024 20.3943 30.0223 20.527 30.2583 20.763C30.4943 20.999 30.6271 21.319 30.6275 21.6527V27.2156C30.6271 27.5494 30.4943 27.8693 30.2583 28.1053C30.0223 28.3413 29.7024 28.474 29.3686 28.4744H23.5574C23.2237 28.474 22.9038 28.3413 22.6678 28.1053C22.4318 27.8693 22.299 27.5494 22.2986 27.2156V21.6527Z" fill="#FF5364"/>
<path d="M11.8508 11.0262C11.8512 10.6925 11.9839 10.3725 12.2199 10.1365C12.4558 9.9005 12.7758 9.76773 13.1095 9.76733H18.9208C19.2546 9.76771 19.5745 9.90046 19.8105 10.1365C20.0465 10.3725 20.1792 10.6925 20.1796 11.0262V16.5892C20.1792 16.923 20.0465 17.2429 19.8105 17.4789C19.5745 17.7149 19.2545 17.8476 18.9208 17.848H13.1095C12.7758 17.8476 12.4559 17.7149 12.2199 17.4789C11.9839 17.2429 11.8512 16.923 11.8508 16.5892V11.0262Z" fill="#6BDDB3"/>
<path d="M37.6805 22.6501L26.9672 19.3761L30.2413 30.0895L32.1152 27.2533L37.2949 32.4331L40.0242 29.7039L34.8444 24.5241L37.6805 22.6501Z" fill="#F9B74B"/>
</g>
<defs>
<clipPath id="clip0_444_251">
<rect width="48" height="48" fill="white"/>
</clipPath>
</defs>
</svg>
