<svg width="48" height="48" viewBox="0 0 48 48" fill="none" xmlns="http://www.w3.org/2000/svg">
<g clip-path="url(#clip0_444_133)">
<path d="M23.7173 0.000392361C21.7596 0.00948611 19.8902 0.176455 18.2452 0.467549C13.3994 1.32367 12.5195 3.11552 12.5195 6.42011V10.7845H23.9708V12.2392H12.5195H8.22195C4.89392 12.2392 1.97971 14.2395 1.06827 18.0449C0.0168618 22.4067 -0.029732 25.1287 1.06827 29.6831C1.8823 33.0732 3.8262 35.4888 7.15424 35.4888H11.0915V30.2569C11.0915 26.4772 14.3617 23.1432 18.2452 23.1432H29.6832C32.8671 23.1432 35.4088 20.5217 35.4088 17.3242V6.42011C35.4088 3.3168 32.7907 0.985517 29.6832 0.467549C27.716 0.14008 25.6749 -0.00870139 23.7173 0.000392361V0.000392361ZM17.5245 3.51058C18.7073 3.51058 19.6732 4.49233 19.6732 5.69936C19.6732 6.90217 18.7073 7.87483 17.5245 7.87483C16.3374 7.87483 15.3757 6.90217 15.3757 5.69936C15.3757 4.49224 16.3374 3.51058 17.5245 3.51058V3.51058Z" fill="url(#paint0_linear_444_133)"/>
<path d="M36.8369 12.2392V17.3242C36.8369 21.2666 33.4945 24.5847 29.6832 24.5847H18.2452C15.1122 24.5847 12.5195 27.2661 12.5195 30.4037V41.3078C12.5195 44.4111 15.2181 46.2365 18.2452 47.1269C21.8701 48.1927 25.3461 48.3854 29.6832 47.1269C32.5661 46.2922 35.4088 44.6124 35.4088 41.3078V36.9435H23.9708V35.4886H35.4088H41.1345C44.4625 35.4886 45.7027 33.1673 46.8602 29.683C48.0558 26.0959 48.0048 22.6464 46.8602 18.0448C46.0377 14.7316 44.4668 12.239 41.1345 12.239H36.8369V12.2392ZM30.4039 39.8531C31.591 39.8531 32.5527 40.8257 32.5527 42.0285C32.5527 43.2357 31.591 44.2174 30.4039 44.2174C29.2211 44.2174 28.2552 43.2357 28.2552 42.0285C28.2551 40.8257 29.221 39.8531 30.4039 39.8531Z" fill="url(#paint1_linear_444_133)"/>
</g>
<defs>
<linearGradient id="paint0_linear_444_133" x1="-0.860177" y1="1.36506" x2="25.5512" y2="23.8885" gradientUnits="userSpaceOnUse">
<stop stop-color="#5A9FD4"/>
<stop offset="1" stop-color="#306998"/>
</linearGradient>
<linearGradient id="paint1_linear_444_133" x1="35.4886" y1="37.8893" x2="26.0172" y2="24.6069" gradientUnits="userSpaceOnUse">
<stop stop-color="#FFD43B"/>
<stop offset="1" stop-color="#FFE873"/>
</linearGradient>
<clipPath id="clip0_444_133">
<rect width="48" height="48" fill="white"/>
</clipPath>
</defs>
</svg>
