<svg width="48" height="48" viewBox="0 0 48 48" fill="none" xmlns="http://www.w3.org/2000/svg">
<path d="M47.8359 21.9452L36.4475 41.6803C36.2289 42.0593 35.826 42.2915 35.3884 42.2915H12.6108C12.1743 42.2915 11.7711 42.0593 11.5525 41.6803L10.6465 40.1096C12.3636 39.8987 14.0328 39.5358 15.642 39.0344H33.9382C34.1089 39.0344 34.2667 38.9432 34.352 38.7949L44.291 21.5724C44.3763 21.4252 44.3763 21.2428 44.291 21.0945L35.0343 5.05518C34.656 3.43799 34.14 1.87317 33.5006 0.375H35.3884C35.8257 0.375 36.2289 0.608643 36.4475 0.987305L47.8359 20.7224C48.0545 21.1003 48.0545 21.5665 47.8359 21.9452Z" fill="#5B5C6C"/>
<path d="M35.7905 11.6287C35.7905 24.5039 27.3157 35.3994 15.642 39.0344C14.0325 39.5358 12.3637 39.8987 10.6465 40.1096L0.164093 21.9452C-0.0545348 21.5665 -0.0545348 21.1003 0.164093 20.7228L11.5525 0.987305C11.7711 0.608643 12.1743 0.375 12.6109 0.375H33.5006C34.14 1.87317 34.656 3.43835 35.0343 5.05518C35.5287 7.16638 35.7905 9.36694 35.7905 11.6287Z" fill="#707384"/>
<path d="M44.291 21.5724L34.352 38.7949C34.2667 38.9432 34.1089 39.0344 33.9382 39.0344H15.642C27.3157 35.3994 35.7905 24.5039 35.7905 11.6287C35.7905 9.36694 35.5287 7.16638 35.0343 5.05518L44.291 21.0945C44.3763 21.2428 44.3763 21.4252 44.291 21.5724Z" fill="#464655"/>
<path d="M35.7905 11.6287C35.7905 24.5039 27.3157 35.3994 15.642 39.0344H14.0611C13.8904 39.0344 13.7326 38.9432 13.6472 38.7949L3.70938 21.5724C3.62405 21.4252 3.62405 21.2428 3.70938 21.0945L13.6472 3.87268C13.7326 3.72473 13.8904 3.63318 14.0611 3.63318H33.9382C34.1089 3.63318 34.2667 3.72437 34.352 3.87268L35.0343 5.05518C35.5287 7.16638 35.7905 9.36694 35.7905 11.6287Z" fill="#5B5C6C"/>
<path d="M37.5022 47.5939H10.4974C9.5376 47.5939 8.7594 46.8157 8.7594 45.8558V35.4141C8.7594 34.4542 9.5376 33.676 10.4974 33.676H37.5022C38.4624 33.676 39.2406 34.4542 39.2406 35.4141V45.8555C39.2406 46.8157 38.4624 47.5939 37.5022 47.5939Z" fill="#C3B4FA"/>
<path d="M37.5026 33.676H34.7227C35.6825 33.676 36.4603 34.4542 36.4603 35.4144V45.8551C36.4603 46.8153 35.6825 47.5939 34.7227 47.5939H37.5026C38.4624 47.5939 39.2406 46.8153 39.2406 45.8551V35.4148C39.2406 34.4542 38.4624 33.676 37.5026 33.676Z" fill="#A09BFF"/>
<path d="M12.0549 44.2976V37.1517C12.0549 37.0345 12.0989 36.9316 12.1868 36.8438C12.275 36.7559 12.3849 36.7119 12.5167 36.7119H14.6924C16.4286 36.7119 17.2969 37.4777 17.2969 39.0095C17.2969 39.6108 17.1669 40.0946 16.9069 40.4608C16.6468 40.8274 16.2967 41.0764 15.8573 41.2086L17.2969 43.8801C17.3335 43.9241 17.3518 43.9827 17.3518 44.0559C17.3518 44.2394 17.2566 44.4097 17.0662 44.5671C16.8754 44.7246 16.6739 44.8033 16.4615 44.8033C16.2491 44.8033 16.0843 44.6898 15.9672 44.4628L14.4067 41.4283H13.4835V44.2976C13.4835 44.4371 13.4139 44.547 13.2748 44.6276C13.1356 44.7085 12.9672 44.7484 12.7694 44.7484C12.5786 44.7484 12.4124 44.7085 12.2692 44.6276C12.1267 44.547 12.0549 44.4371 12.0549 44.2976ZM13.4835 40.307H14.6924C15.4764 40.307 15.8683 39.9185 15.8683 39.1414C15.8683 38.3573 15.4764 37.9651 14.6924 37.9651H13.4835V40.307Z" fill="#8080E5"/>
<path d="M17.8792 42.5936V41.6591C17.8792 41.0585 18.1135 40.5414 18.5826 40.1089C19.0514 39.6768 19.619 39.4603 20.2859 39.4603C20.9084 39.4603 21.4413 39.6573 21.8848 40.0514C22.3279 40.4451 22.5494 40.9402 22.5494 41.5367C22.5494 41.7546 22.522 41.9341 22.467 42.0754C22.4121 42.2172 22.3279 42.3168 22.2144 42.375C22.1008 42.4332 21.9961 42.4695 21.9012 42.4841C21.806 42.4984 21.6815 42.5057 21.5277 42.5057H19.2968V42.6709C19.2968 42.9858 19.4139 43.2407 19.6483 43.4348C19.8827 43.6289 20.1943 43.726 20.5825 43.726C20.8608 43.726 21.1355 43.6564 21.4065 43.5172C21.6775 43.3781 21.8533 43.3085 21.9342 43.3085C22.088 43.3085 22.2162 43.3799 22.3187 43.5227C22.4213 43.6655 22.4725 43.8029 22.4725 43.9351C22.4725 44.1401 22.2876 44.3438 21.9177 44.5452C21.5475 44.7469 21.0879 44.8473 20.5386 44.8473C19.7545 44.8473 19.1155 44.6404 18.6211 44.2262C18.1263 43.8124 17.8792 43.2682 17.8792 42.5936ZM19.2968 41.67H20.9011C21.0183 41.67 21.1007 41.6514 21.1487 41.6136C21.1959 41.5759 21.2201 41.5023 21.2201 41.3928C21.2201 41.1533 21.1267 40.9581 20.9399 40.8076C20.7532 40.6571 20.5239 40.5817 20.2529 40.5817C19.9966 40.5817 19.7732 40.6556 19.5828 40.8025C19.392 40.9497 19.2968 41.1431 19.2968 41.3826V41.67Z" fill="#8080E5"/>
<path d="M23.0881 43.34C23.0881 42.7628 23.3079 42.3571 23.7473 42.1216C24.1868 41.8868 24.8203 41.7693 25.6483 41.7693H26.0991V41.6221C26.0991 41.3434 26.02 41.1002 25.8625 40.8929C25.7051 40.6853 25.4615 40.5817 25.132 40.5817C24.8024 40.5817 24.52 40.6443 24.2856 40.7688C24.0513 40.8933 23.9158 40.9556 23.8791 40.9556C23.7327 40.9556 23.6155 40.8823 23.5276 40.7355C23.4397 40.589 23.3958 40.4279 23.3958 40.2521C23.3958 40.0393 23.584 39.8544 23.9615 39.6965C24.3387 39.5391 24.7361 39.4603 25.1539 39.4603C25.9523 39.4603 26.5455 39.6639 26.9341 40.0704C27.3223 40.4773 27.5164 40.9885 27.5164 41.6041V44.2976C27.5164 44.4225 27.4504 44.5287 27.3186 44.6166C27.1868 44.7045 27.022 44.7484 26.8238 44.7484C26.6407 44.7484 26.4888 44.7015 26.3679 44.6074C26.2471 44.5133 26.1866 44.3998 26.1866 44.2668V43.9259C25.6813 44.5404 25.1243 44.8477 24.5164 44.8477C24.0989 44.8477 23.7561 44.7191 23.4888 44.4624C23.2214 44.2053 23.0881 43.8314 23.0881 43.34ZM24.5054 43.1627C24.5054 43.351 24.5585 43.4916 24.6647 43.5853C24.7709 43.6794 24.9122 43.726 25.088 43.726C25.3224 43.726 25.5494 43.6219 25.7692 43.4132C25.9889 43.2048 26.0991 42.9752 26.0991 42.7247V42.5057H25.934C25.4872 42.5057 25.1374 42.5493 24.8848 42.6361C24.6317 42.7233 24.5054 42.8987 24.5054 43.1627Z" fill="#8080E5"/>
<path d="M28.3956 42.5936V41.7144C28.3956 41.0398 28.5934 40.4956 28.9889 40.0814C29.3844 39.6676 29.978 39.4603 30.769 39.4603C31.2671 39.4603 31.6849 39.5482 32.0218 39.7244C32.3588 39.9001 32.5272 40.0979 32.5272 40.318C32.5272 40.4718 32.4723 40.6256 32.3624 40.7794C32.2526 40.9336 32.1207 41.0105 31.9669 41.0105C31.923 41.0105 31.793 40.9611 31.5769 40.8622C31.3608 40.7629 31.1279 40.7139 30.8789 40.7139C30.1685 40.7139 29.8132 41.0482 29.8132 41.7173V42.5903C29.8132 43.2598 30.1721 43.5941 30.8899 43.5941C31.1389 43.5941 31.3696 43.541 31.5824 43.4348C31.7948 43.3286 31.9303 43.2751 31.9889 43.2751C32.1647 43.2751 32.3093 43.3488 32.4232 43.4952C32.5367 43.6417 32.5935 43.7919 32.5935 43.946C32.5935 44.1731 32.4155 44.3804 32.0603 44.5671C31.7051 44.7539 31.2784 44.8473 30.78 44.8473C29.9817 44.8473 29.3848 44.6422 28.9889 44.2317C28.5934 43.8215 28.3956 43.2755 28.3956 42.5936Z" fill="#8080E5"/>
<path d="M33.3296 42.9884V37.7183C33.3296 37.5952 33.4025 37.4919 33.5493 37.4084C33.6954 37.3253 33.8569 37.2836 34.0327 37.2836C34.2231 37.2836 34.3898 37.3242 34.5326 37.4052C34.6754 37.4865 34.7468 37.5868 34.7468 37.7065V39.5262H36.0436C36.1534 39.5262 36.2413 39.5823 36.3072 39.6936C36.3732 39.8049 36.4061 39.936 36.4061 40.0869C36.4061 40.2382 36.3732 40.3693 36.3072 40.4806C36.2413 40.5919 36.1534 40.6476 36.0436 40.6476H34.7468V42.9404C34.7468 43.1426 34.7926 43.2858 34.8845 43.3696C34.9757 43.4535 35.1354 43.4952 35.3624 43.4952H35.7909C35.9813 43.4952 36.1296 43.5564 36.2362 43.6791C36.342 43.8018 36.3951 43.9475 36.3951 44.1163C36.3951 44.2925 36.342 44.4419 36.2362 44.5646C36.1296 44.6873 35.9813 44.7484 35.7909 44.7484H35.3624C34.0071 44.7484 33.3296 44.1617 33.3296 42.9884Z" fill="#8080E5"/>
<path d="M25.5846 19.1173C25.5846 18.2421 24.8749 17.532 24 17.532C23.1248 17.532 22.4154 18.2421 22.4154 19.1173C22.4154 19.9929 23.1248 20.7026 24 20.7026C24.8749 20.7026 25.5846 19.9929 25.5846 19.1173Z" fill="#A0DCF0"/>
<path d="M28.5603 30.0286C27.4134 30.0286 26.0723 29.4756 24.6459 28.3938C22.7057 26.9231 20.7718 24.6134 19.2004 21.8899C17.6286 19.1664 16.5962 16.3356 16.293 13.9193C15.9627 11.2859 16.5431 9.39476 17.9278 8.59496C19.3121 7.79515 21.2391 8.2379 23.3536 9.84081C25.2937 11.3119 27.2277 13.6216 28.7991 16.3451C30.3709 19.0686 31.4032 21.899 31.7064 24.3153C32.0371 26.9491 31.4563 28.8402 30.072 29.6396C29.6216 29.9 29.1133 30.0286 28.5603 30.0286ZM19.4527 9.67638C19.1531 9.67638 18.8876 9.7401 18.6631 9.86974C17.8359 10.3473 17.5041 11.7565 17.7524 13.7362C18.0318 15.962 18.9982 18.5965 20.474 21.1538C21.9499 23.7114 23.7472 25.8658 25.5343 27.2208C27.1237 28.4256 28.5094 28.8428 29.3363 28.3652C30.1636 27.8873 30.4954 26.4781 30.2471 24.4988C29.9677 22.2726 29.0012 19.6384 27.5254 17.0808C26.0496 14.5235 24.2526 12.3688 22.4651 11.0138C21.3072 10.136 20.2572 9.67638 19.4527 9.67638Z" fill="#54A1FF"/>
<path d="M19.4391 30.0286C18.8861 30.0286 18.3782 29.9 17.9278 29.6396C16.5431 28.8402 15.9627 26.9491 16.293 24.3153C16.5962 21.899 17.6286 19.0686 19.2004 16.3451C20.7718 13.6216 22.7057 11.3119 24.6459 9.84081C26.7604 8.2379 28.6874 7.79515 30.072 8.59496C31.4563 9.39476 32.0371 11.2859 31.7064 13.9193C31.4032 16.3356 30.3709 19.1664 28.7991 21.8899C27.2277 24.613 25.2937 26.9231 23.3536 28.3938C21.9272 29.4752 20.5861 30.0286 19.4391 30.0286ZM28.5468 9.67638C27.7422 9.67638 26.6927 10.136 25.5343 11.0138C23.7472 12.3688 21.9499 14.5235 20.4744 17.0808C18.9986 19.6384 18.0318 22.2726 17.7527 24.4988C17.5041 26.4781 17.8362 27.8873 18.6631 28.3652C19.4904 28.8431 20.8761 28.4256 22.4655 27.2208C24.2526 25.8658 26.0496 23.7114 27.5254 21.1538C29.0012 18.5965 29.9677 15.9624 30.2471 13.7362C30.4954 11.7565 30.1636 10.3473 29.3363 9.86974C29.1122 9.7401 28.8463 9.67638 28.5468 9.67638Z" fill="#54A1FF"/>
<path d="M24 24.6621C20.8568 24.6621 17.8901 24.1414 15.6471 23.1958C13.2019 22.1653 11.8553 20.7169 11.8553 19.1173C11.8553 17.5177 13.2019 16.0697 15.6471 15.0388C17.8901 14.0936 20.8568 13.5729 24 13.5729C27.1432 13.5729 30.1095 14.0936 32.3529 15.0388C34.7977 16.0697 36.1443 17.5177 36.1443 19.1173C36.1443 20.7169 34.7977 22.1653 32.3529 23.1958C30.1095 24.1414 27.1432 24.6621 24 24.6621ZM24 15.0447C17.71 15.0447 13.3264 17.191 13.3264 19.1173C13.3264 21.0439 17.71 23.1903 24 23.1903C30.2896 23.1903 34.6732 21.0439 34.6732 19.1173C34.6732 17.191 30.2896 15.0447 24 15.0447Z" fill="#54A1FF"/>
</svg>
