<svg width="48" height="48" viewBox="0 0 48 48" fill="none" xmlns="http://www.w3.org/2000/svg">
<g clip-path="url(#clip0_444_241)">
<path d="M42.7948 25.4399C42.0944 25.3084 41.6077 24.6783 41.6417 23.9667C41.8489 19.6379 37.5989 16.363 33.4942 17.5533C32.7878 17.7582 32.0407 17.4088 31.7663 16.7264C30.7351 14.1627 28.7591 12.0819 26.2702 10.9113H23.6114L10.5949 23.6202L7.60645 27.7132L9.07476 34.5272L13.7135 38.1239H41.5038C45.0175 38.1239 47.9492 35.3322 47.9995 31.8188C48.0444 28.6722 45.8071 26.0051 42.7948 25.4399Z" fill="#60B9FE"/>
<path d="M9.29213 29.8718C9.24675 24.8 13.6493 21.0103 18.4509 21.5019C19.2519 21.5839 19.966 20.9854 20.0106 20.1814C20.2368 16.0966 22.7254 12.5806 26.2702 10.9113C24.8607 10.2484 23.2875 9.87622 21.6268 9.87622C15.7673 9.87622 11.0349 14.4741 10.7189 20.1815C10.6744 20.9855 9.96038 21.584 9.15928 21.502C4.3576 21.0104 -0.0449975 24.8001 0.000471204 29.8719C0.0415337 34.457 3.83681 38.124 8.42213 38.124H17.7139C13.1285 38.1238 9.33319 34.4569 9.29213 29.8718Z" fill="#1CA8FF"/>
<path d="M22.8871 26.7291C22.4871 26.7291 22.1628 27.0534 22.1628 27.4534V27.5652C21.626 27.1958 20.9766 26.979 20.2774 26.979C18.4389 26.979 16.9432 28.4747 16.9432 30.3131C16.9432 32.1515 18.4389 33.6471 20.2774 33.6471C20.9767 33.6471 21.6261 33.4303 22.1628 33.0609V33.1728C22.1628 33.5729 22.4871 33.8971 22.8871 33.8971C23.2871 33.8971 23.6114 33.5728 23.6114 33.1728V27.4534C23.6115 27.0533 23.2872 26.7291 22.8871 26.7291ZM20.2774 32.1985C19.2377 32.1985 18.392 31.3528 18.392 30.3131C18.392 29.2734 19.2378 28.4276 20.2774 28.4276C21.317 28.4276 22.1628 29.2734 22.1628 30.3131C22.1628 31.3528 21.317 32.1985 20.2774 32.1985Z" fill="#DBEDFF"/>
<path d="M30.4955 26.7291C30.0954 26.7291 29.7712 27.0534 29.7712 27.4534V27.5652C29.2344 27.1958 28.585 26.979 27.8858 26.979C26.0473 26.979 24.5516 28.4747 24.5516 30.3131C24.5516 32.1515 26.0473 33.6471 27.8858 33.6471C28.5851 33.6471 29.2345 33.4303 29.7712 33.0609V33.1728C29.7712 33.5729 30.0954 33.8971 30.4955 33.8971C30.8955 33.8971 31.2198 33.5728 31.2198 33.1728V27.4534C31.2198 27.0533 30.8955 26.7291 30.4955 26.7291ZM27.8857 32.1985C26.846 32.1985 26.0003 31.3528 26.0003 30.3131C26.0003 29.2734 26.8461 28.4276 27.8857 28.4276C28.9253 28.4276 29.7711 29.2734 29.7711 30.3131C29.7711 31.3528 28.9254 32.1985 27.8857 32.1985Z" fill="#DBEDFF"/>
<path d="M35.4485 28.0342C34.5379 28.0342 33.7971 27.3691 33.7971 26.5516C33.7971 25.734 34.5379 25.0688 35.4485 25.0688C36.3591 25.0688 37.0999 25.734 37.0999 26.5516C37.0999 26.9517 37.4242 27.2759 37.8243 27.2759C38.2243 27.2759 38.5486 26.9516 38.5486 26.5516C38.5486 24.9352 37.1579 23.6201 35.4485 23.6201C33.7392 23.6201 32.3485 24.9351 32.3485 26.5516C32.3485 28.1679 33.7392 29.483 35.4485 29.483C36.3591 29.483 37.0999 30.1481 37.0999 30.9657C37.0999 31.7833 36.3591 32.4485 35.4485 32.4485C34.5379 32.4485 33.7971 31.7833 33.7971 30.9657C33.7971 30.5656 33.4729 30.2414 33.0728 30.2414C32.6728 30.2414 32.3485 30.5657 32.3485 30.9657C32.3485 32.5821 33.7392 33.8972 35.4485 33.8972C37.1579 33.8972 38.5486 32.5821 38.5486 30.9657C38.5487 29.3493 37.158 28.0342 35.4485 28.0342Z" fill="#DBEDFF"/>
<path d="M12.8762 25.0688C13.7868 25.0688 14.5277 25.734 14.5277 26.5516C14.5277 26.9517 14.8519 27.2759 15.252 27.2759C15.652 27.2759 15.9763 26.9516 15.9763 26.5516C15.9763 24.9352 14.5856 23.6201 12.8762 23.6201C11.1668 23.6201 9.77612 24.9351 9.77612 26.5516C9.77612 28.1679 11.1668 29.483 12.8762 29.483C13.7868 29.483 14.5277 30.1481 14.5277 30.9657C14.5277 31.7833 13.7868 32.4485 12.8762 32.4485C11.9657 32.4485 11.2248 31.7833 11.2248 30.9657C11.2248 30.5656 10.9006 30.2414 10.5005 30.2414C10.1005 30.2414 9.77622 30.5657 9.77622 30.9657C9.77622 32.5821 11.1669 33.8972 12.8763 33.8972C14.5857 33.8972 15.9764 32.5821 15.9764 30.9657C15.9764 29.3494 14.5857 28.0342 12.8763 28.0342C11.9657 28.0342 11.2249 27.3691 11.2249 26.5516C11.2248 25.734 11.9656 25.0688 12.8762 25.0688Z" fill="#DBEDFF"/>
</g>
<defs>
<clipPath id="clip0_444_241">
<rect width="48" height="48" fill="white"/>
</clipPath>
</defs>
</svg>
