<svg width="21" height="20" viewBox="0 0 21 20" fill="none" xmlns="http://www.w3.org/2000/svg">
<path d="M9.31259 0.492298L0.993332 8.81152C0.337184 9.46767 0.337184 10.5318 0.993332 11.188C1.64948 11.8441 2.71365 11.8441 3.3698 11.188L10.5 4.05777L17.6302 11.188C18.2863 11.8441 19.3505 11.8441 20.0066 11.188C20.6628 10.5318 20.6628 9.46768 20.0066 8.81153L11.6874 0.492299C11.0329 -0.16385 9.96874 -0.163851 9.31259 0.492298ZM8.80882 10.4952L1.84768 17.1C1.14908 17.7636 1.14908 18.8386 1.84768 19.5023C2.54627 20.1659 3.67956 20.1659 4.37901 19.5023L10.0745 14.0982L15.77 19.5023C16.4686 20.1659 17.6027 20.1659 18.3013 19.5023C18.9999 18.8386 18.9999 17.7636 18.3013 17.1L11.3402 10.4952C10.6416 9.83155 9.50827 9.83155 8.80882 10.4952Z" fill="white"/>
</svg>
